<svg preserveAspectRatio="none" width="100%" height="100%" overflow="visible" style="display: block;" viewBox="0 0 14.7314 14.7311" fill="none" xmlns="http://www.w3.org/2000/svg">
<path id="Star 1 (Stroke)" d="M6.76846 0.420025C6.96869 -0.149625 7.76879 -0.130768 7.96334 0.421429L7.97226 0.448602L9.45365 5.2774L14.2831 6.75904C14.8808 6.9424 14.8808 7.78846 14.2831 7.97183L9.45365 9.45338L7.97209 14.2828C7.78873 14.8805 6.94266 14.8805 6.7593 14.2828L5.27766 9.45338L0.448272 7.97183C-0.149421 7.78847 -0.149427 6.9424 0.448272 6.75904L5.27766 5.2774L6.7593 0.448024L6.76846 0.420025ZM6.25647 5.83581C6.19475 6.037 6.03726 6.19449 5.83607 6.25621L2.22022 7.36543L5.83607 8.47466C6.02469 8.53252 6.17486 8.67458 6.24375 8.85789L6.25647 8.89505L7.36569 12.5108L8.47492 8.89505L8.48764 8.85789C8.55653 8.67458 8.7067 8.53252 8.89532 8.47466L12.5111 7.36543L8.89532 6.25621C8.69094 6.19351 8.53549 6.03335 8.47475 5.8354C8.0344 4.39998 7.72617 3.39527 7.36561 2.21997L6.25647 5.83581Z" fill="var(--fill-0, white)"/>
</svg>
