<svg preserveAspectRatio="none" width="100%" height="100%" overflow="visible" style="display: block;" viewBox="0 0 6.69668 6.6967" fill="none" xmlns="http://www.w3.org/2000/svg">
<path id="Star 2 (Stroke)" d="M2.91027 0.308535C3.05501 -0.102846 3.64168 -0.102844 3.78642 0.308535L3.79302 0.32877L4.39752 2.29911L6.36795 2.90369C6.80626 3.03815 6.80626 3.65858 6.36795 3.79305L4.39752 4.39755L3.79302 6.36797C3.65856 6.80629 3.03813 6.80628 2.90366 6.36797L2.29908 4.39755L0.328737 3.79305C-0.10958 3.65858 -0.109578 3.03815 0.328737 2.90369L2.29908 2.29911L2.90366 0.32877L2.91027 0.308535ZM2.9808 2.67251C2.93554 2.82005 2.82002 2.93557 2.67248 2.98083L1.4743 3.34837L2.67248 3.71591C2.81079 3.75834 2.92094 3.86249 2.97147 3.99689L2.9808 4.02423L3.34834 5.22232L3.71588 4.02423L3.72521 3.99689C3.77574 3.86249 3.8859 3.75834 4.0242 3.71591L5.2223 3.34837L4.0242 2.98083C3.87667 2.93557 3.76114 2.82005 3.71588 2.67251L3.34834 1.47433L2.9808 2.67251Z" fill="var(--fill-0, white)"/>
</svg>
