<svg preserveAspectRatio="xMidYMid meet" width="100%" height="100%" overflow="visible" style="display: block;" viewBox="0 0 240 52.6963" fill="none" xmlns="http://www.w3.org/2000/svg">
<g id="Group 3">
<g id="logo">
<path d="M26.7305 0.00140627H26.5406C19.5128 -0.0709715 12.7417 2.65307 7.70466 7.57921C5.26274 10.0156 3.32484 12.9137 2.00274 16.1065C0.680629 19.2992 0.000455601 22.7235 0.00144266 26.1817C-0.0348975 29.6559 0.615642 33.1028 1.9153 36.3223C3.21497 39.5418 5.13787 42.4698 7.57243 44.9364C10.007 47.403 12.9047 49.3591 16.0975 50.6911C19.2902 52.0232 22.7144 52.7047 26.1713 52.6961H26.2346C41.0342 52.6961 52.6154 41.2472 52.7632 26.6537C52.8317 11.7897 41.3719 0.15519 26.7305 0.00140627ZM26.1713 50.8348H26.1027C22.8862 50.8341 19.7015 50.195 16.7314 48.9542C13.7613 47.7134 11.0642 45.8953 8.79498 43.6042C6.52574 41.3132 4.72902 38.5942 3.50792 35.6035C2.28681 32.6128 1.66538 29.4091 1.67927 26.1764C1.6544 22.9574 2.27563 19.7665 3.50582 16.7943C4.73602 13.8222 6.5499 11.1299 8.83903 8.87842C13.5445 4.28253 19.8634 1.73687 26.4245 1.79378H26.6092C40.3272 1.8415 50.9693 12.7495 50.8796 26.5794C50.8321 40.2131 39.9315 50.8348 26.1713 50.8348Z" fill="var(--fill-0, #DA4E1F)"/>
<path d="M26.699 3.48557H26.5144C20.3841 3.41113 14.4743 5.7813 10.0791 10.077C7.94388 12.1811 6.25168 14.6955 5.10323 17.4704C3.95479 20.2454 3.37358 23.2242 3.3942 26.2296C3.37192 29.2505 3.94353 32.2461 5.07623 35.0444C6.20893 37.8427 7.8804 40.3886 9.99469 42.5359C12.1029 44.6906 14.6202 46.3978 17.3971 47.5565C20.1741 48.7151 23.1542 49.3016 26.1609 49.2812H26.2295C39.1244 49.2812 49.2125 39.2694 49.3127 26.6538C49.3971 13.7891 39.4621 3.5545 26.699 3.48557ZM4.37029 26.1607C4.35272 23.2859 4.90704 20.4366 6.00067 17.7802C7.09429 15.1238 8.70516 12.714 10.7386 10.6922C14.9523 6.58418 20.6073 4.31112 26.4774 4.36584H26.6621C29.5429 4.3753 32.3931 4.9596 35.0474 6.08483C37.7017 7.21006 40.1072 8.85384 42.1245 10.9208C44.1418 12.9877 45.7306 15.4367 46.7988 18.1256C47.867 20.8146 48.3933 23.6899 48.3472 26.5849C48.3335 31.3451 46.7612 35.9685 43.873 39.7413L42.86 38.7126V36.8353H41.3562L37.9373 32.6249V30.981H36.5655L31.3685 24.4372C29.7109 24.0946 28.0219 23.9293 26.3297 23.9441C24.6099 23.939 22.8944 24.1168 21.2118 24.4743L16.0148 31.034H14.7749V32.5877L11.3559 36.8672H9.82057V38.7603L8.87087 39.6565C5.92999 35.7803 4.34759 31.0352 4.37029 26.1607ZM12.8122 38.283L14.5111 36.6444L16.2892 38.1823H15.9515V39.0307C15.0334 39.1156 14.1523 39.2004 13.3134 39.3065V38.2883H12.8227L12.8122 38.283ZM17.6029 30.859L18.769 29.756L19.9878 30.859H19.7187V31.4317C19.1066 31.4847 18.5157 31.5325 17.9406 31.6014V30.8643L17.6029 30.859ZM22.4253 30.1802L23.8657 28.9606L25.2375 30.2492H24.7996V31.1931L22.8211 31.2461V30.1855L22.4253 30.1802ZM24.425 37.2278H23.7866V38.6383C22.8422 38.6383 21.9083 38.686 20.9955 38.7232H20.9269V37.2861H20.3202L22.2987 35.393L24.425 37.2278ZM28.646 37.3338L30.6245 35.4407L32.735 37.2808H32.0491V38.7126C31.1152 38.6807 30.1655 38.6489 29.2052 38.6277V37.3179H28.6776L28.646 37.3338ZM30.118 30.1802V31.2408C29.4743 31.2037 28.8148 31.1878 28.1394 31.1719V30.2545H27.7332L29.105 28.9659L30.5454 30.1855L30.118 30.1802ZM32.9091 30.9226L34.1332 29.8249L35.2992 30.9226H34.9563V31.6173C34.3864 31.5484 33.7902 31.5007 33.1835 31.4476V30.9173H32.9249L32.9091 30.9226ZM36.7502 38.1823L38.5177 36.6444L40.2271 38.283H39.7365V39.3436C38.8712 39.2429 37.9953 39.158 37.0984 39.0891V38.2194H36.7554L36.7502 38.1823Z" fill="var(--fill-0, #DA4E1F)"/>
<path d="M20.0986 23.1327L21.2646 24.013C22.9239 23.6701 24.6147 23.5048 26.3086 23.5198C28.0018 23.5206 29.691 23.6858 31.3526 24.013L32.5187 23.1327C30.4923 22.6269 28.4123 22.3704 26.3244 22.3691C24.2275 22.3921 22.1395 22.6482 20.0986 23.1327Z" fill="var(--fill-0, #DA4E1F)"/>
<path d="M32.64 22.8039V20.5449C28.4683 19.5339 24.1173 19.5339 19.9456 20.5449V22.8039C22.0188 22.3003 24.144 22.044 26.2769 22.0403C28.421 22.0326 30.558 22.289 32.64 22.8039Z" fill="var(--fill-0, #DA4E1F)"/>
<path d="M31.5901 16.2178L26.3139 7.49454L21.1063 16.2178C22.8287 15.8641 24.5823 15.6864 26.3403 15.6875C28.1031 15.6935 29.8613 15.8711 31.5901 16.2178Z" fill="var(--fill-0, #DA4E1F)"/>
<path d="M31.3579 19.5692V16.8647C31.1965 16.8248 31.0326 16.7965 30.8672 16.7799V19.4843C31.0322 19.5035 31.196 19.5319 31.3579 19.5692Z" fill="var(--fill-0, #DA4E1F)"/>
<path d="M29.9492 19.3306V16.6261L29.1208 16.5253V19.2298L29.9492 19.3306Z" fill="var(--fill-0, #DA4E1F)"/>
<path d="M28.0128 19.145V16.4405L26.8415 16.3875V19.0919L28.0128 19.145Z" fill="var(--fill-0, #DA4E1F)"/>
<path d="M25.8549 19.0919V16.4034C25.4328 16.4034 25.0265 16.4034 24.6202 16.4564V19.1609C25.0054 19.129 25.4275 19.0919 25.8549 19.0919Z" fill="var(--fill-0, #DA4E1F)"/>
<path d="M23.5861 19.2298V16.5253L22.7577 16.6261V19.3306L23.5861 19.2298Z" fill="var(--fill-0, #DA4E1F)"/>
<path d="M21.8186 19.4843V16.7799C21.6867 16.7799 21.4651 16.8435 21.3279 16.8647V19.5692C21.502 19.5374 21.6709 19.5003 21.8186 19.4843Z" fill="var(--fill-0, #DA4E1F)"/>
</g>
<g id="logo_2">
<path d="M76.9463 44.8396C72.4085 44.8396 68.6445 41.1169 68.6445 35.2946C68.6445 29.4723 72.3912 25.7584 76.9463 25.7584C80.3713 25.7584 83.1443 27.2228 84.5178 30.1692L84.683 30.1163L84.5526 27.6639C82.814 25.7673 79.7889 24.8145 76.9289 24.8145C71.1654 24.7881 66.1409 28.8637 66.1409 35.2329C66.1409 41.6021 71.1654 45.6865 76.9289 45.8188C78.3505 45.8621 79.766 45.6124 81.0898 45.0847C82.4136 44.5571 83.6183 43.7624 84.6308 42.7489L84.7525 41.1963L84.5874 41.064C82.7618 43.5958 80.6408 44.8396 76.9463 44.8396Z" fill="var(--fill-0, black)"/>
<path d="M97.7659 24.8057C92.1068 24.8057 87.2909 28.8813 87.2909 35.2417C87.2909 41.6021 92.1155 45.6777 97.7659 45.6777C103.416 45.6777 108.197 41.6021 108.197 35.2417C108.197 28.8813 103.416 24.8057 97.7659 24.8057ZM97.7659 44.769C93.0195 44.769 89.7597 41.1522 89.7597 35.224C89.7597 29.2959 93.0891 25.679 97.7659 25.679C102.443 25.679 105.772 29.3224 105.772 35.2329C105.772 41.1434 102.477 44.769 97.7659 44.769Z" fill="var(--fill-0, black)"/>
<path d="M150.271 35.2329C150.271 28.8725 145.429 24.7969 139.84 24.7969C134.25 24.7969 129.408 28.8725 129.408 35.2329C129.408 41.5933 134.224 45.6688 139.84 45.6688C145.455 45.6688 150.271 41.6021 150.271 35.2329ZM131.781 35.2329C131.781 29.2783 135.085 25.6967 139.796 25.6967C144.508 25.6967 147.803 29.3224 147.803 35.2329C147.803 41.1434 144.508 44.7779 139.796 44.7779C135.085 44.7779 131.781 41.1522 131.781 35.2329Z" fill="var(--fill-0, black)"/>
<path d="M171.421 25.2291C170.932 25.2213 170.444 25.177 169.961 25.0968L169.9 25.2644C170.163 25.3403 170.392 25.5049 170.55 25.7311C170.708 25.9573 170.786 26.2315 170.769 26.5083C170.882 28.0256 170.987 30.6015 170.987 35.1711C170.987 37.6941 170.987 39.9701 171.047 41.655C167.057 37.2442 162.163 31.5984 156.765 25.2203C156.265 25.2715 155.763 25.2922 155.261 25.2821C154.783 25.2821 153.853 25.2203 153.105 25.1497L153.053 25.3085C153.441 25.4463 153.782 25.6911 154.04 26.0152C154.298 26.3393 154.462 26.73 154.513 27.1434C154.513 27.9286 154.566 30.4339 154.566 35.1888C154.566 39.9436 154.566 42.3343 154.409 43.8516C154.431 44.1294 154.355 44.406 154.196 44.6332C154.038 44.8605 153.805 45.024 153.54 45.0954L153.592 45.263C154.097 45.1931 154.604 45.1489 155.113 45.1307C155.606 45.1346 156.097 45.1788 156.582 45.263L156.635 45.0954C156.382 45.0033 156.163 44.8347 156.007 44.6122C155.852 44.3898 155.767 44.1243 155.765 43.8516C155.652 42.3343 155.548 39.7231 155.548 35.1888C155.548 31.3866 155.548 29.2783 155.496 27.2493C160.538 33.0716 165.658 38.8056 171.386 45.6777H172.004C171.952 43.7193 171.873 39.9172 171.873 35.2417C171.873 30.5662 171.873 28.0962 172.038 26.5788C172.006 26.2991 172.077 26.0171 172.237 25.7873C172.398 25.5575 172.637 25.3964 172.908 25.335V25.0792C172.415 25.1558 171.919 25.2059 171.421 25.2291Z" fill="var(--fill-0, black)"/>
<path d="M193.736 43.3752C191.997 39.8466 187.59 30.0546 185.365 24.9557H184.956C182.461 30.7691 178.471 39.432 176.463 43.6134C176.333 43.9675 176.127 44.2875 175.859 44.5501C175.591 44.8126 175.269 45.011 174.916 45.1307L174.977 45.2983C175.583 45.2231 176.192 45.179 176.802 45.166C177.434 45.1459 178.066 45.1903 178.689 45.2983L178.741 45.1307C177.871 44.8573 177.637 44.3985 178.037 43.3664C178.436 42.3343 179.088 40.7199 179.862 38.9556H189.294C190.215 41.1345 191.033 42.9253 191.337 43.7104C191.641 44.4956 191.467 44.822 190.633 45.0954L190.685 45.263C191.389 45.2101 192.423 45.1395 193.136 45.1395C193.849 45.1395 194.744 45.1925 195.449 45.263L195.509 45.0954C194.739 44.7486 194.112 44.1403 193.736 43.3752ZM180.192 38.0822C181.627 34.7389 183.348 30.7515 184.452 28.3079C185.452 30.478 187.303 34.633 188.842 38.0822H180.192Z" fill="var(--fill-0, black)"/>
<path d="M203.768 25.2027C202.116 25.2027 200.291 25.2027 199.021 25.2821H196.7V25.5291H197.1C197.612 25.5233 198.106 25.7157 198.482 26.0672C198.715 26.2797 198.889 26.5504 198.987 26.8523C198.987 27.9638 199.039 30.7603 199.039 35.1446C199.039 39.8995 199.039 42.793 198.987 43.684C198.995 43.869 198.971 44.054 198.917 44.2309C198.859 44.4244 198.745 44.5958 198.59 44.7231C198.435 44.8505 198.246 44.9279 198.048 44.9455V45.1484H198.135C199.804 45.2366 202.177 45.2983 203.811 45.2983C212.869 45.2983 216.112 39.776 216.112 34.9241C216.129 27.7257 210.531 25.2027 203.768 25.2027ZM203.568 44.6102C203.168 44.6102 201.881 44.6103 201.482 44.5573C201.429 42.89 201.36 40.0936 201.36 35.2858C201.36 30.8044 201.36 28.0873 201.412 25.9613C201.829 25.9084 202.994 25.9084 203.333 25.9084C210.8 25.9084 213.521 29.9487 213.556 35.0123C213.573 41.1963 210.279 44.6014 203.568 44.6014V44.6102Z" fill="var(--fill-0, black)"/>
<path d="M229.568 24.8057C223.918 24.8057 219.137 28.8813 219.137 35.2417C219.137 41.6021 223.961 45.6777 229.568 45.6777C235.175 45.6777 240 41.6021 240 35.2329C240 28.8637 235.201 24.8057 229.568 24.8057ZM229.568 44.769C224.822 44.769 221.562 41.1522 221.562 35.224C221.562 29.2959 224.857 25.679 229.568 25.679C234.28 25.679 237.575 29.3224 237.575 35.224C237.575 41.1257 234.237 44.769 229.568 44.769Z" fill="var(--fill-0, black)"/>
<path d="M128.617 44.9366C128.546 44.9197 128.478 44.8898 128.417 44.8484C127.978 44.5972 127.564 44.3016 127.183 43.9663C125.294 42.3207 123.636 40.4212 122.254 38.3204C121.908 37.8749 121.534 37.4535 121.133 37.0589C120.801 36.759 120.433 36.504 120.037 36.3003C120.742 36.3056 121.44 36.1544 122.081 35.8572C122.722 35.56 123.291 35.1241 123.749 34.5801C124.753 33.464 125.291 31.9971 125.253 30.4868C125.281 29.7646 125.152 29.0451 124.875 28.379C124.599 27.7129 124.182 27.1165 123.654 26.6318C122.43 25.5815 120.854 25.0507 119.255 25.1497H110.145V25.4409H110.545C111.051 25.4375 111.541 25.6262 111.918 25.9702C112.102 26.1372 112.25 26.3408 112.354 26.5685C112.457 26.7961 112.513 27.0429 112.518 27.2934C112.518 27.2934 112.518 43.8692 112.518 43.9486V43.5605C112.518 44.3103 112.153 44.919 111.553 44.9896V45.1925C112.239 45.1062 112.93 45.0679 113.622 45.0778C114.439 45.0778 115.36 45.0778 115.639 45.1484V44.9366C115.204 44.8396 114.674 44.6808 114.674 43.931V43.5252C114.674 43.5252 114.674 42.9606 114.674 36.3091H117.916C118.051 36.3617 118.175 36.4395 118.281 36.5385C119.372 37.7255 120.366 39 121.254 40.3494C121.955 41.3323 122.71 42.2747 123.514 43.1723C124.177 43.9074 124.982 44.4947 125.88 44.8972C126.778 45.2996 127.749 45.5083 128.73 45.5101H130.234V45.2895C129.681 45.255 129.136 45.136 128.617 44.9366ZM117.977 35.4093H114.569C114.569 33.0275 114.569 29.9928 114.569 26.0672C115.995 26.0672 117.429 26.0672 118.864 26.1201C119.436 26.0975 120.006 26.2018 120.535 26.4257C121.063 26.6497 121.537 26.988 121.924 27.4169C122.548 28.2181 122.933 29.1839 123.033 30.2001C123.133 31.2162 122.944 32.2402 122.489 33.151C121.524 34.8447 119.75 35.3123 117.977 35.4093Z" fill="var(--fill-0, black)"/>
</g>
<g id="logo_3">
<path d="M68.6706 17.4484C68.3489 17.2896 68.1838 17.2014 68.1838 16.7956V12.4289H74.3471V16.7956C74.3471 17.2014 74.1819 17.2896 73.8603 17.4484V17.5366C74.2821 17.4625 74.7103 17.4329 75.1381 17.4484C75.56 17.4928 75.9854 17.4928 76.4073 17.4484C76.2543 17.4285 76.1148 17.3496 76.0177 17.228C75.9205 17.1064 75.8733 16.9516 75.8857 16.7956V7.71813C75.8857 7.31234 76.0509 7.23294 76.3725 7.06533V7.00358C75.9494 7.06447 75.5216 7.08514 75.0947 7.06533C74.7122 7.06533 74.2254 6.98594 73.8168 6.98594V7.06533C74.1471 7.23294 74.3036 7.31234 74.3036 7.71813V11.6879H68.2185V7.71813C68.2185 7.31234 68.3837 7.23294 68.7053 7.06533V7.00358C68.2827 7.07036 67.8549 7.09695 67.4275 7.08297C67.0102 7.06533 66.5234 7.00358 66.1409 7.00358V7.06533C66.4626 7.23294 66.6277 7.31234 66.6277 7.71813V16.7956C66.6277 17.2014 66.4626 17.2896 66.1409 17.4484V17.5366C66.5598 17.4628 66.9852 17.4332 67.4101 17.4484C67.8013 17.4484 68.2794 17.5366 68.6879 17.5366L68.6706 17.4484Z" fill="var(--fill-0, black)"/>
<path d="M84.1962 17.6777C85.243 17.6344 86.2541 17.2795 87.1035 16.657C87.9529 16.0346 88.603 15.1723 88.9727 14.1775C89.3425 13.1827 89.4156 12.0995 89.183 11.0629C88.9503 10.0262 88.4221 9.082 87.6643 8.34786C86.9065 7.61373 85.9525 7.12215 84.9213 6.93441C83.8901 6.74666 82.8272 6.87105 81.8652 7.29206C80.9031 7.71308 80.0845 8.41211 79.5112 9.30202C78.9379 10.1919 78.6354 11.2334 78.6414 12.2966C78.6467 13.0235 78.7958 13.7419 79.08 14.4092C79.3643 15.0764 79.7777 15.6789 80.2959 16.1809C80.814 16.6828 81.4263 17.074 82.0963 17.3311C82.7663 17.5883 83.4804 17.7061 84.1962 17.6777ZM84.1962 7.35644C86.6302 7.35644 88.0645 9.12077 88.0645 12.1378C88.0645 15.1548 86.6128 16.9191 84.1962 16.9191C81.7795 16.9191 80.3278 15.1548 80.3278 12.1378C80.3278 9.12077 81.7882 7.35644 84.1962 7.35644Z" fill="var(--fill-0, black)"/>
<path d="M94.5147 7.53288H94.593V16.7779C94.593 17.1837 94.4365 17.2631 94.1061 17.4307V17.5101C94.5287 17.4433 94.9566 17.4168 95.384 17.4307C95.7665 17.4307 96.2533 17.5101 96.6619 17.5101V17.4307C96.3315 17.2631 96.1751 17.1837 96.1751 16.7779V7.53288H96.3315C97.6091 7.519 98.8629 7.88384 99.9391 8.58265L100.026 8.49444C99.8232 8.01209 99.6604 7.5134 99.5392 7.00358H91.4722C91.339 7.52428 91.1765 8.03678 90.9854 8.53854L91.0636 8.62676C92.0713 7.90151 93.2794 7.51858 94.5147 7.53288Z" fill="var(--fill-0, black)"/>
<path d="M105.033 17.0249H104.39V12.3848C107.398 12.3848 107.78 12.4465 107.937 13.1964H107.997C107.925 12.8396 107.899 12.4749 107.919 12.1113C107.906 11.7478 107.932 11.3839 107.997 11.0262H107.919C107.754 11.6879 107.372 11.8467 104.373 11.8467V7.51524H105.407C106.056 7.45679 106.709 7.52963 107.33 7.72952C107.951 7.92941 108.526 8.25238 109.023 8.67969L109.101 8.57383C108.945 8.08864 108.736 7.40937 108.615 7.00358H103.521C103.138 7.00358 102.651 6.89772 102.243 6.89772V7.00358C102.573 7.14472 102.738 7.25059 102.738 7.65638V16.9367C102.722 17.0944 102.669 17.2459 102.583 17.378C102.496 17.5102 102.38 17.6191 102.243 17.6954C102.691 17.724 103.14 17.661 103.564 17.5101H109.197C109.362 17.1043 109.684 16.3633 109.849 16.0193L109.771 15.9399C108.658 16.7779 106.893 17.0249 105.033 17.0249Z" fill="var(--fill-0, black)"/>
<path d="M118.69 17.4307C118.881 16.9367 119.177 16.2839 119.324 16.0016L119.237 15.9222C118.02 16.7255 116.572 17.0919 115.126 16.9632H114.474V7.71813C114.474 7.31234 114.639 7.23294 114.969 7.06533V7.00358C114.544 7.07005 114.113 7.09663 113.683 7.08297C113.3 7.08297 112.813 7.00358 112.414 7.00358V7.04769C112.735 7.20648 112.9 7.29469 112.9 7.70049V16.7779C112.9 17.1837 112.735 17.2631 112.414 17.4307V17.5101C112.989 17.4261 113.571 17.3995 114.152 17.4307H118.69Z" fill="var(--fill-0, black)"/>
<path d="M138.718 16.9456C138.704 17.1015 138.652 17.2515 138.567 17.3823C138.483 17.5131 138.367 17.6206 138.232 17.6954C138.671 17.7245 139.111 17.6645 139.527 17.519H145.16C145.325 17.1043 145.655 16.3721 145.812 16.0193L145.734 15.9399C144.595 16.7779 142.839 17.0249 140.97 17.0249H140.318V12.3848C143.317 12.3848 143.699 12.4465 143.865 13.2052H143.952C143.871 12.8496 143.842 12.4842 143.865 12.1201C143.849 11.7562 143.879 11.3917 143.952 11.0351H143.865C143.699 11.6879 143.3 11.8555 140.318 11.8555V7.51524H141.352C142.002 7.45805 142.657 7.53146 143.279 7.73127C143.901 7.93107 144.478 8.25336 144.977 8.67969L145.064 8.58265C144.874 8.06574 144.711 7.53859 144.577 7.00358H139.509C139.118 7.00358 138.64 6.90654 138.232 6.90654V7.00358C138.553 7.14472 138.718 7.25059 138.718 7.6652V16.9456Z" fill="var(--fill-0, black)"/>
<path d="M155.235 15.9222C154.017 16.7255 152.57 17.0919 151.123 16.9632H150.463V7.71813C150.463 7.31234 150.619 7.23294 150.949 7.06533V7.00358C150.527 7.06986 150.099 7.09644 149.672 7.08297C149.289 7.08297 148.802 7.00358 148.394 7.00358V7.04769C148.715 7.20648 148.88 7.29469 148.88 7.70049V16.7779C148.88 17.1837 148.715 17.2631 148.394 17.4307V17.5101C148.969 17.4261 149.552 17.3995 150.132 17.4307H154.653C154.829 16.9406 155.038 16.4631 155.278 16.0016L155.235 15.9222Z" fill="var(--fill-0, black)"/>
<path d="M125.948 7.40056C126.059 7.5009 126.143 7.62847 126.192 7.77106C126.192 7.96514 126.192 8.26507 126.192 8.65322C126.192 9.44717 126.192 10.6469 126.192 12.226C126.192 14.7931 126.192 16.3457 126.192 16.8309C126.203 16.9187 126.203 17.0077 126.192 17.0955C126.165 17.1804 126.115 17.2557 126.047 17.312C125.979 17.3684 125.897 17.4036 125.809 17.4131H125.722V17.713H125.862C126.731 17.713 127.991 17.7924 128.956 17.7924C133.972 17.7924 135.754 14.7225 135.754 12.0937C135.754 8.6444 133.329 6.73893 128.93 6.73893C127.861 6.73893 126.766 6.73893 126.322 6.73893H124.957V7.0918H125.253C125.384 7.09184 125.513 7.11928 125.633 7.17242C125.752 7.22555 125.86 7.30322 125.948 7.40056ZM127.687 7.3388C127.861 7.3388 128.183 7.3388 128.635 7.3388C133.12 7.3388 134.085 9.98529 134.102 12.1466C134.146 12.812 134.059 13.4796 133.847 14.1108C133.635 14.7421 133.302 15.3247 132.868 15.8252C131.74 16.8087 130.274 17.2974 128.791 17.1837C128.278 17.1837 127.922 17.1837 127.748 17.1837C127.748 16.3016 127.687 14.7931 127.687 12.2701C127.687 9.92354 127.687 8.46797 127.713 7.3388H127.687Z" fill="var(--fill-0, black)"/>
</g>
</g>
</svg>
