<svg preserveAspectRatio="none" width="100%" height="100%" overflow="visible" style="display: block;" viewBox="0 0 12 14" fill="none" xmlns="http://www.w3.org/2000/svg">
<path id="Vector" d="M3.55 11.4715C2.91685 11.9256 2.5 12.6633 2.5 13.5C2.5 13.7763 2.72365 14 3 14H9C9.27635 14 9.5 13.7763 9.5 13.5C9.5 12.6633 9.08315 11.9256 8.45 11.4715C10.5393 10.5322 12 8.43545 12 6C12 2.69165 9.3086 0 6 0C2.6914 0 0 2.69165 0 6C0 8.4354 1.4607 10.5322 3.55 11.4715ZM6 1C8.75685 1 11 3.2429 11 6C11 8.7571 8.75685 11 6 11C3.24315 11 1 8.75685 1 6C1 3.24315 3.24315 1 6 1ZM7 12C7.65185 12 8.208 12.4179 8.41455 13H3.58545C3.792 12.4179 4.34815 12 5 12H7Z" fill="var(--fill-0, white)"/>
</svg>
