<svg preserveAspectRatio="none" width="100%" height="100%" overflow="visible" style="display: block;" viewBox="0 0 16 15.9996" fill="none" xmlns="http://www.w3.org/2000/svg">
<g id="Group">
<path id="Vector" d="M7.99913 13.3553C7.6976 13.3553 7.45314 13.5998 7.45314 13.9013V15.4537C7.45314 15.7552 7.6976 15.9996 7.99913 15.9996C8.30073 15.9996 8.54511 15.7552 8.54511 15.4537V13.9013C8.54511 13.5997 8.30066 13.3553 7.99913 13.3553Z" fill="var(--fill-0, white)"/>
<path id="Vector_2" d="M7.99913 2.64446C8.30073 2.64446 8.54511 2.40001 8.54511 2.09848V0.545986C8.54511 0.244456 8.30073 0 7.99913 0C7.6976 0 7.45314 0.244456 7.45314 0.545986V2.09848C7.45314 2.40001 7.6976 2.64446 7.99913 2.64446Z" fill="var(--fill-0, white)"/>
<path id="Vector_3" d="M3.44109 11.7864L2.34301 12.884C2.12971 13.0971 2.12964 13.4428 2.34279 13.656C2.44944 13.7627 2.58921 13.8161 2.72898 13.8161C2.86868 13.8161 3.00831 13.7628 3.11496 13.6563L4.21304 12.5588C4.42634 12.3456 4.42641 11.9999 4.21326 11.7867C3.99996 11.5734 3.65432 11.5734 3.44109 11.7864Z" fill="var(--fill-0, white)"/>
<path id="Vector_4" d="M12.1724 4.37254C12.3121 4.37254 12.4518 4.31926 12.5585 4.21268L13.6564 3.11518C13.8696 2.90195 13.8697 2.5563 13.6566 2.34301C13.4433 2.12971 13.0977 2.12964 12.8844 2.34293L11.7864 3.44044C11.5732 3.65359 11.5731 3.99931 11.7863 4.21253C11.8929 4.31926 12.0326 4.37254 12.1724 4.37254Z" fill="var(--fill-0, white)"/>
<path id="Vector_5" d="M2.64432 7.99993C2.64432 7.6984 2.39986 7.45394 2.09833 7.45394H0.545986C0.244456 7.45394 0 7.6984 0 7.99993C0 8.30146 0.244456 8.54591 0.545986 8.54591H2.09833C2.39986 8.54591 2.64432 8.30146 2.64432 7.99993Z" fill="var(--fill-0, white)"/>
<path id="Vector_6" d="M15.454 7.45394H13.9009C13.5993 7.45394 13.355 7.6984 13.355 7.99993C13.355 8.30146 13.5993 8.54591 13.9009 8.54591H15.454C15.7556 8.54591 16 8.30146 16 7.99993C16 7.69847 15.7556 7.45394 15.454 7.45394Z" fill="var(--fill-0, white)"/>
<path id="Vector_7" d="M3.44095 4.21268C3.54752 4.31926 3.6873 4.37254 3.827 4.37254C3.96669 4.37254 4.10647 4.31926 4.21304 4.21268C4.42627 3.99945 4.42627 3.65374 4.21304 3.44051L3.11554 2.34301C2.90231 2.12978 2.5566 2.12978 2.34344 2.34301C2.13022 2.55623 2.13022 2.90195 2.34344 3.1151L3.44095 4.21268Z" fill="var(--fill-0, white)"/>
<path id="Vector_8" d="M12.5591 11.7866C12.3459 11.5734 12.0002 11.5733 11.787 11.7865C11.5737 11.9997 11.5737 12.3455 11.7869 12.5586L12.8842 13.6561C12.9909 13.7628 13.1306 13.8161 13.2704 13.8161C13.4101 13.8161 13.5498 13.7628 13.6564 13.6562C13.8697 13.443 13.8697 13.0972 13.6565 12.8841L12.5591 11.7866Z" fill="var(--fill-0, white)"/>
<path id="Vector_9" d="M7.99971 3.75019C5.65656 3.75019 3.75027 5.65663 3.75027 7.99993C3.75027 10.3432 5.65656 12.2495 7.99971 12.2495C10.3431 12.2495 12.2495 10.3432 12.2495 7.99993C12.2495 5.65663 10.343 3.75019 7.99971 3.75019ZM7.99971 11.1575C6.25867 11.1575 4.84224 9.74104 4.84224 7.99993C4.84224 6.25874 6.25867 4.84216 7.99971 4.84216C9.74097 4.84216 11.1575 6.25874 11.1575 7.99993C11.1575 9.74104 9.74097 11.1575 7.99971 11.1575Z" fill="var(--fill-0, white)"/>
</g>
</svg>
