<svg width="150" height="90" viewBox="0 0 150 90" fill="none" xmlns="http://www.w3.org/2000/svg">
<g clip-path="url(#clip0_4119_2168)">
<path d="M75 2.43005C71.827 2.44339 68.7291 3.39647 66.0974 5.16898C63.4656 6.94149 61.418 9.45397 60.213 12.3892C59.008 15.3245 58.6996 18.551 59.3268 21.6614C59.954 24.7718 61.4886 27.6266 63.737 29.8656C65.9853 32.1045 68.8466 33.6271 71.9596 34.2413C75.0726 34.8554 78.2977 34.5335 81.2279 33.3162C84.1581 32.0989 86.662 30.0407 88.4234 27.4016C90.1849 24.7624 91.125 21.6605 91.125 18.4876C91.1071 14.2226 89.4004 10.1385 86.3783 7.12907C83.3562 4.11963 79.2649 2.43002 75 2.43005ZM67.7025 26.5651H67.5V27.1576C66.87 27.1576 66.24 27.2626 65.655 27.3301V26.5801H65.25L66.435 25.4326L67.7025 26.5651ZM70.3875 21.4651H70.1775V21.8176L68.925 21.9226V21.4651H68.6775L69.5175 20.6701L70.3875 21.4651ZM73.3425 25.9651H72.9975V26.8651C72.3375 26.8651 71.6775 26.9026 71.01 26.9401V25.9051H70.5L72 24.6226L73.3425 25.9651ZM73.7325 21.0001V21.6601H72.3375V20.9101H72L73.0125 20.0401L73.9875 20.9401H73.71L73.7325 21.0001ZM75.9825 21.0001L76.9575 20.1001L78 20.9476H77.685V21.6976C77.235 21.6601 76.785 21.6601 76.29 21.6601V21.0001H76.0125H75.9825ZM78.9825 25.9201V26.9326C78.315 26.9326 77.655 26.9326 76.995 26.8576V25.9576H76.65L78 24.6226L79.5 25.9051L78.9825 25.9201ZM81.0375 21.4801V21.9376C80.6175 21.9001 80.235 21.8626 79.785 21.8326V21.4801H79.575L80.445 20.6851L81.24 21.4801H81.0375ZM84.375 26.6176V27.3676C83.7825 27.3001 83.16 27.2326 82.53 27.1951V26.6026H82.29L83.5425 25.4926L84.75 26.6026L84.375 26.6176ZM86.5725 26.9326V25.5976H85.53L83.1225 22.6501V21.5026H82.1475L78.525 17.2051C77.369 16.9584 76.1894 16.8402 75.0075 16.8526C73.8255 16.8377 72.6455 16.9559 71.49 17.2051L67.875 21.5026H66.87V22.6501L64.5 25.5976H63.42V26.9176L62.67 27.6676C60.6476 25.0187 59.5585 21.7751 59.5725 18.4426C59.5725 14.3509 61.1979 10.4269 64.0911 7.53366C66.9843 4.64045 70.9084 3.01505 75 3.01505C79.0916 3.01505 83.0157 4.64045 85.9089 7.53366C88.8021 10.4269 90.4275 14.3509 90.4275 18.4426C90.4448 21.7757 89.3554 25.0203 87.33 27.6676L86.5725 26.9326Z" fill="#D95A40"/>
<path d="M70.665 16.23L71.4675 16.8525C72.6289 16.6083 73.8133 16.4902 75 16.5C76.1806 16.5062 77.3582 16.6217 78.5175 16.845L79.32 16.2225C76.4813 15.5329 73.5187 15.5329 70.68 16.2225L70.665 16.23Z" fill="#D95A40"/>
<path d="M79.44 15.99V14.43C77.982 14.0737 76.4859 13.8974 74.985 13.905C73.4692 13.896 71.958 14.0723 70.485 14.43V15.99C71.9588 15.6366 73.4695 15.4604 74.985 15.465C76.4874 15.4276 77.9875 15.6043 79.44 15.99ZM78.705 11.3775L75 5.25L71.3775 11.355C72.5796 11.0927 73.8071 10.9644 75.0375 10.9725C76.2702 10.9894 77.4984 11.1251 78.705 11.3775ZM78.5325 13.7325V11.8275C78.4189 11.7983 78.3037 11.7757 78.1875 11.76V13.665C78.3052 13.6704 78.4214 13.6932 78.5325 13.7325ZM77.5575 13.56V11.655C77.385 11.655 77.175 11.655 76.965 11.5875V13.5C77.175 13.5 77.385 13.5 77.5575 13.56ZM76.2 13.425V11.5125H75.3975V13.4175C75.675 13.3875 75.96 13.425 76.2 13.425ZM74.7075 13.3875V11.5125C74.4145 11.5059 74.1214 11.5185 73.83 11.55V13.455C74.1211 13.4169 74.414 13.3944 74.7075 13.3875ZM73.1025 13.5V11.5875C72.8925 11.5875 72.72 11.5875 72.51 11.655V13.56C72.75 13.5 72.8925 13.5 73.1025 13.5ZM71.88 13.665V11.76C71.7622 11.7643 71.6458 11.7871 71.535 11.8275V13.7325C71.647 13.6966 71.7628 13.6739 71.88 13.665Z" fill="#D95A40"/>
<path d="M75 36.9375C71.3494 36.9197 67.7859 35.8206 64.7595 33.7791C61.7331 31.7375 59.3795 28.845 57.9958 25.4667C56.6121 22.0885 56.2604 18.376 56.9852 14.798C57.7099 11.2201 59.4785 7.93704 62.0677 5.36351C64.657 2.78999 67.9507 1.04135 71.533 0.338387C75.1153 -0.364572 78.8256 0.00967205 82.1953 1.41387C85.5651 2.81806 88.4433 5.18923 90.4664 8.22799C92.4895 11.2668 93.5669 14.8368 93.5625 18.4875C93.5387 23.3929 91.5718 28.0889 88.0926 31.547C84.6133 35.0052 79.9054 36.9435 75 36.9375ZM75 1.21497C71.5925 1.23423 68.267 2.26227 65.4431 4.16939C62.6192 6.07652 60.4234 8.77728 59.1327 11.931C57.8421 15.0846 57.5144 18.5499 58.1909 21.8896C58.8675 25.2294 60.518 28.2939 62.9343 30.6966C65.3506 33.0993 68.4244 34.7326 71.7679 35.3903C75.1114 36.048 78.5747 35.7008 81.7211 34.3924C84.8674 33.0839 87.5558 30.8729 89.447 28.0383C91.3382 25.2038 92.3474 21.8725 92.3475 18.465C92.3257 13.8798 90.4879 9.49012 87.2365 6.25704C83.9852 3.02396 79.5852 1.21095 75 1.21497Z" fill="#D95A40"/>
<path d="M75 36.9375C71.3494 36.9197 67.7859 35.8206 64.7595 33.7791C61.7331 31.7375 59.3795 28.845 57.9958 25.4667C56.6121 22.0885 56.2604 18.376 56.9852 14.798C57.7099 11.2201 59.4785 7.93704 62.0677 5.36351C64.657 2.78999 67.9507 1.04135 71.533 0.338387C75.1153 -0.364572 78.8256 0.00967205 82.1953 1.41387C85.5651 2.81806 88.4433 5.18923 90.4664 8.22799C92.4895 11.2668 93.5669 14.8368 93.5625 18.4875C93.5387 23.3929 91.5718 28.0889 88.0926 31.547C84.6133 35.0052 79.9054 36.9435 75 36.9375ZM75 1.21497C71.5925 1.23423 68.267 2.26227 65.4431 4.16939C62.6192 6.07652 60.4234 8.77728 59.1327 11.931C57.8421 15.0846 57.5144 18.5499 58.1909 21.8896C58.8675 25.2294 60.518 28.2939 62.9343 30.6966C65.3506 33.0993 68.4244 34.7326 71.7679 35.3903C75.1114 36.048 78.5747 35.7008 81.7211 34.3924C84.8674 33.0839 87.5558 30.8729 89.447 28.0383C91.3382 25.2038 92.3474 21.8725 92.3475 18.465C92.3257 13.8798 90.4879 9.49012 87.2365 6.25704C83.9852 3.02396 79.5852 1.21095 75 1.21497Z" fill="#D95A40"/>
<path d="M66.24 86.8125C65.37 86.43 65.2275 86.22 65.2275 85.905C65.2275 85.59 65.5425 85.2525 66.03 85.2525C66.3025 85.2518 66.5693 85.3301 66.7982 85.4778C67.0272 85.6255 67.2084 85.8365 67.32 86.085L67.245 85.29C66.8899 85.0418 66.4628 84.9179 66.03 84.9375C65.1225 84.9375 64.53 85.425 64.53 86.19C64.53 86.8125 64.9125 87.1275 65.82 87.5775C66.7275 88.0275 66.8625 88.2 66.8625 88.62C66.8623 88.743 66.8361 88.8646 66.7855 88.9767C66.7349 89.0889 66.6611 89.189 66.5689 89.2705C66.4768 89.352 66.3684 89.4131 66.2509 89.4496C66.1335 89.4861 66.0096 89.4974 65.8875 89.4825C65.5671 89.4779 65.2549 89.3806 64.9886 89.2022C64.7224 89.0238 64.5136 88.7721 64.3875 88.4775H64.32L64.425 89.3775C64.8248 89.6472 65.3007 89.7813 65.7825 89.76C66.9975 89.76 67.38 89.01 67.38 88.3725C67.635 87.5025 67.0425 87.1575 66.24 86.8125ZM72.825 88.86C72.7434 88.86 72.6636 88.8842 72.5958 88.9295C72.528 88.9749 72.4751 89.0393 72.4439 89.1147C72.4127 89.19 72.4045 89.273 72.4204 89.353C72.4363 89.433 72.4756 89.5065 72.5333 89.5642C72.591 89.6219 72.6645 89.6612 72.7445 89.6771C72.8245 89.693 72.9075 89.6848 72.9828 89.6536C73.0582 89.6224 73.1226 89.5695 73.168 89.5017C73.2133 89.4339 73.2375 89.3541 73.2375 89.2725C73.2434 89.2169 73.2368 89.1607 73.2181 89.1079C73.1995 89.0552 73.1693 89.0073 73.1297 88.9678C73.0902 88.9282 73.0423 88.898 72.9896 88.8794C72.9368 88.8607 72.8806 88.8541 72.825 88.86ZM80.835 87.09L80.73 87.0525H80.835C81.0532 86.9789 81.2429 86.8387 81.3774 86.6517C81.512 86.4648 81.5845 86.2404 81.585 86.01C81.5771 85.8469 81.5354 85.6873 81.4626 85.5412C81.3897 85.3951 81.2872 85.2657 81.1617 85.1613C81.0361 85.057 80.8902 84.9798 80.7333 84.9348C80.5764 84.8898 80.4118 84.878 80.25 84.9C80.0837 84.8845 79.9161 84.9035 79.7575 84.9557C79.5988 85.0079 79.4527 85.0922 79.3281 85.2034C79.2036 85.3146 79.1032 85.4502 79.0335 85.6019C78.9637 85.7536 78.9259 85.9181 78.9225 86.085C78.9373 86.3153 79.0151 86.5372 79.1473 86.7263C79.2796 86.9154 79.4612 87.0646 79.6725 87.1575L79.7775 87.195H79.6725C79.3998 87.272 79.1599 87.4361 78.9892 87.6622C78.8186 87.8884 78.7267 88.1642 78.7275 88.4475C78.7397 88.631 78.7885 88.8101 78.871 88.9744C78.9534 89.1387 79.0679 89.2849 79.2076 89.4044C79.3474 89.5239 79.5096 89.6142 79.6847 89.6701C79.8598 89.7261 80.0444 89.7464 80.2275 89.73C80.4175 89.7391 80.6074 89.7102 80.7861 89.6451C80.9648 89.58 81.1287 89.4799 81.2684 89.3507C81.408 89.2216 81.5205 89.0659 81.5993 88.8928C81.6782 88.7197 81.7217 88.5326 81.7275 88.3425C81.7208 88.0685 81.6322 87.8028 81.4731 87.5795C81.3141 87.3563 81.0918 87.1858 80.835 87.09ZM79.6875 86.01C79.6875 85.5975 79.89 85.32 80.2425 85.32C80.595 85.32 80.835 85.665 80.835 86.22C80.835 86.535 80.655 86.97 80.3475 86.97C80.04 86.97 79.6875 86.535 79.6875 86.01ZM80.4375 89.445C79.845 89.445 79.635 88.86 79.635 88.335C79.6092 88.2116 79.6149 88.0837 79.6516 87.9631C79.6883 87.8425 79.7548 87.7331 79.845 87.645C79.8993 87.5764 79.9691 87.5217 80.0486 87.4852C80.1281 87.4487 80.2151 87.4315 80.3025 87.435C80.6775 87.435 81.0975 87.855 81.0975 88.545C81.075 89.0625 80.76 89.445 80.415 89.445H80.4375ZM84.945 87.0525C85.1585 86.9927 85.3468 86.8654 85.482 86.6897C85.6172 86.5139 85.6919 86.2992 85.695 86.0775C85.6821 85.9191 85.6372 85.765 85.5631 85.6244C85.489 85.4838 85.3872 85.3597 85.2639 85.2595C85.1406 85.1593 84.9982 85.0851 84.8455 85.0414C84.6927 84.9976 84.5327 84.9853 84.375 85.005C84.2093 84.9896 84.0423 85.0083 83.8842 85.06C83.7261 85.1118 83.5803 85.1954 83.4558 85.3058C83.3314 85.4162 83.2309 85.551 83.1607 85.7018C83.0904 85.8526 83.0519 86.0162 83.0475 86.1825C83.0618 86.4139 83.1393 86.637 83.2715 86.8274C83.4037 87.0178 83.5857 87.1683 83.7975 87.2625C83.5261 87.3391 83.287 87.5021 83.1165 87.7268C82.946 87.9514 82.8533 88.2255 82.8525 88.5075C82.8647 88.691 82.9135 88.8701 82.996 89.0344C83.0784 89.1987 83.1929 89.3449 83.3326 89.4644C83.4724 89.5839 83.6346 89.6742 83.8097 89.7301C83.9848 89.7861 84.1694 89.8064 84.3525 89.79C84.6965 89.8234 85.0407 89.7292 85.3198 89.5255C85.599 89.3218 85.7935 89.0226 85.8666 88.6849C85.9398 88.3471 85.8863 87.9943 85.7164 87.6934C85.5465 87.3924 85.272 87.1644 84.945 87.0525ZM83.79 85.9425C83.79 85.53 84 85.2525 84.3525 85.2525C84.705 85.2525 84.945 85.5975 84.945 86.1525C84.945 86.4675 84.735 86.9025 84.4575 86.9025C84.18 86.9025 83.79 86.4975 83.79 85.9425ZM84.4875 89.3775C83.895 89.3775 83.685 88.785 83.685 88.2675C83.685 87.75 83.97 87.3675 84.3825 87.3675C84.795 87.3675 85.1325 87.8175 85.1325 88.4775C85.155 88.995 84.87 89.3775 84.4875 89.3775ZM89.055 87.0525C89.2685 86.9927 89.4568 86.8654 89.592 86.6897C89.7272 86.5139 89.8019 86.2992 89.805 86.0775C89.792 85.9191 89.7472 85.765 89.6731 85.6244C89.599 85.4838 89.4973 85.3597 89.3739 85.2595C89.2506 85.1593 89.1082 85.0851 88.9555 85.0414C88.8027 84.9976 88.6427 84.9853 88.485 85.005C88.3193 84.9896 88.1523 85.0083 87.9942 85.06C87.8361 85.1118 87.6903 85.1954 87.5658 85.3058C87.4414 85.4162 87.3409 85.551 87.2707 85.7018C87.2004 85.8526 87.1619 86.0162 87.1575 86.1825C87.1718 86.4139 87.2493 86.637 87.3815 86.8274C87.5137 87.0178 87.6957 87.1683 87.9075 87.2625C87.6303 87.3318 87.3838 87.4907 87.2061 87.7145C87.0285 87.9382 86.9297 88.2144 86.925 88.5C86.9372 88.6835 86.986 88.8626 87.0685 89.0269C87.1509 89.1912 87.2654 89.3374 87.4051 89.4569C87.5449 89.5764 87.7071 89.6667 87.8822 89.7226C88.0573 89.7786 88.2419 89.7989 88.425 89.7825C88.6157 89.7947 88.8069 89.7681 88.987 89.7041C89.1671 89.6401 89.3323 89.5403 89.4726 89.4105C89.6129 89.2807 89.7253 89.1238 89.8031 88.9492C89.8809 88.7747 89.9223 88.5861 89.925 88.395C89.928 88.1105 89.847 87.8314 89.6923 87.5927C89.5376 87.3539 89.3159 87.166 89.055 87.0525ZM87.87 85.9425C87.87 85.53 88.08 85.2525 88.425 85.2525C88.77 85.2525 89.0175 85.5975 89.0175 86.1525C89.0175 86.4675 88.8075 86.9025 88.53 86.9025C88.2525 86.9025 87.87 86.4975 87.87 85.9425ZM88.5675 89.3775C87.975 89.3775 87.765 88.785 87.765 88.2675C87.765 87.75 88.0425 87.3675 88.4625 87.3675C88.8825 87.3675 89.2125 87.8175 89.2125 88.4775C89.25 88.995 88.95 89.3775 88.5675 89.3775ZM70.0725 85.1775C69.4571 85.1254 68.8426 85.287 68.3325 85.635V85.5975C68.4424 85.3852 68.5352 85.1645 68.61 84.9375H72.36C72.4275 85.1475 72.6075 85.455 72.6375 85.5975V85.635C72.1248 85.2864 71.5077 85.1249 70.89 85.1775V89.4075C70.8848 89.4759 70.9027 89.5441 70.9408 89.6012C70.9788 89.6582 71.0349 89.701 71.1 89.7225V89.76C70.9042 89.728 70.7057 89.7154 70.5075 89.7225C70.3093 89.7168 70.1109 89.7293 69.915 89.76V89.7225C70.0575 89.655 70.125 89.6175 70.125 89.4075V87.33L70.0725 85.1775ZM60.9825 87.12C62.3775 87.12 62.55 87.0525 62.6175 86.7375H62.655C62.6248 86.8982 62.6122 87.0616 62.6175 87.225C62.6122 87.3884 62.6248 87.5519 62.655 87.7125H62.6175C62.55 87.3975 62.3775 87.33 60.9825 87.33V89.4075H61.2975C61.9669 89.469 62.6382 89.3111 63.21 88.9575C63.0958 89.1678 63.0028 89.3888 62.9325 89.6175H60.8775C60.6004 89.5955 60.3221 89.5955 60.045 89.6175C60.112 89.5998 60.1699 89.5576 60.2074 89.4993C60.2449 89.441 60.2592 89.3708 60.2475 89.3025V85.14C60.2527 85.0735 60.2356 85.0072 60.199 84.9516C60.1623 84.8959 60.1081 84.854 60.045 84.8325C60.3218 84.8606 60.6007 84.8606 60.8775 84.8325H63C63.0675 85.035 63.24 85.35 63.2775 85.4925C62.7114 85.1253 62.0354 84.9663 61.365 85.0425H61.05L60.9825 87.12ZM76.3725 86.19V85.905C76.2646 85.9683 76.1485 86.0162 76.0275 86.0475L75.675 86.1525V86.085C75.7969 86.0126 75.9123 85.9297 76.02 85.8375L76.44 85.53C76.5749 85.4343 76.7027 85.3291 76.8225 85.215L77.1375 84.9V89.4C77.1375 89.5725 77.205 89.64 77.3775 89.7075V89.745C76.9841 89.6953 76.5859 89.6953 76.1925 89.745V89.7075C76.335 89.64 76.44 89.6025 76.44 89.4M107.82 46.65V46.5C107.82 46.155 107.685 46.0875 107.407 45.945V45.8775C107.775 45.9343 108.146 45.9569 108.517 45.945C108.891 45.9561 109.265 45.9335 109.635 45.8775V45.945C109.357 46.0875 109.215 46.155 109.215 46.5V54.375H109.777C111.019 54.4904 112.264 54.1981 113.325 53.5425L113.4 53.61C113.201 54.0044 113.026 54.4101 112.875 54.825H108.975C108.462 54.7982 107.947 54.8208 107.437 54.8925V54.7875C107.722 54.6525 107.857 54.585 107.857 54.2325V50.355C107.82 48.4875 107.82 47.25 107.82 46.65ZM100.402 50.01C103.02 50.01 103.327 49.875 103.47 49.32H103.537C103.447 49.9166 103.447 50.5234 103.537 51.12H103.5C103.357 50.565 103.05 50.43 100.432 50.43V54.315H100.995C102.236 54.4265 103.48 54.1346 104.542 53.4825L104.617 53.55C104.512 53.79 104.235 54.345 104.092 54.765H100.192C99.6915 54.7397 99.1892 54.7623 98.6925 54.8325C98.97 54.6975 99.105 54.63 99.105 54.2775V46.5C99.105 46.1475 98.97 46.08 98.6925 45.945V45.87C99.1884 45.9478 99.6912 45.9729 100.192 45.945H104.092C104.265 46.3575 104.512 46.9125 104.617 47.1525L104.542 47.2275C103.567 46.53 102.592 46.395 100.995 46.395H100.432L100.402 50.01ZM90.6525 45.9525H89.6475C89.1465 45.9705 88.6448 45.9479 88.1475 45.885V45.9525C88.5 46.125 88.5675 46.1625 88.5675 46.6125V54.1125C88.5675 54.5625 88.5 54.6 88.1475 54.7725V54.84C88.6448 54.7771 89.1465 54.7546 89.6475 54.7725H90.6525C93.6525 54.7725 96.195 53.5575 96.195 50.3325C96.195 47.1075 93.6825 45.9525 90.6525 45.9525ZM95.04 50.355C95.04 52.605 93.7875 54.345 90.4425 54.345H89.8875V46.3725H90.4425C93.825 46.3725 95.04 48.105 95.04 50.355ZM77.1075 46.65V46.5C77.1075 46.155 76.965 46.0875 76.6875 45.945V45.8775C77.0572 45.9335 77.4312 45.9561 77.805 45.945C78.1763 45.9569 78.5479 45.9343 78.915 45.8775V45.945C78.6375 46.0875 78.5025 46.155 78.5025 46.5V54.375H79.0575C80.2991 54.4909 81.5446 54.1986 82.605 53.5425L82.68 53.61C82.575 53.85 82.2975 54.405 82.155 54.825H78.255C77.754 54.7997 77.2517 54.8223 76.755 54.8925V54.7875C77.0325 54.6525 77.175 54.585 77.175 54.2325V50.355C77.1075 48.4875 77.1075 47.25 77.1075 46.65ZM69.69 50.01C72.3 50.01 72.615 49.875 72.75 49.32H72.825C72.7257 49.9159 72.7257 50.5241 72.825 51.12H72.75C72.615 50.565 72.3 50.43 69.69 50.43V54.315H70.245C71.4887 54.4271 72.7354 54.1352 73.8 53.4825L73.8675 53.55C73.7625 53.79 73.485 54.345 73.3425 54.765H69.4425C68.9415 54.7397 68.4392 54.7623 67.9425 54.8325C68.22 54.6975 68.3625 54.63 68.3625 54.2775V46.5C68.3625 46.1475 68.22 46.08 67.9425 45.945V45.87C68.4384 45.9478 68.9412 45.9729 69.4425 45.945H73.3425L73.8675 47.1525L73.8 47.2275C72.825 46.53 71.85 46.395 70.245 46.395H69.69C69.75 47.25 69.75 48.1725 69.69 50.01ZM61.5 46.3725C60.3588 46.2969 59.2234 46.5887 58.26 47.205H58.1925C58.2975 46.965 58.575 46.41 58.71 45.99H65.64L66.165 47.205L66.0975 47.2725C65.1267 46.6411 63.9744 46.3485 62.82 46.44V54.315C62.82 54.66 62.9625 54.7275 63.24 54.87V54.9375C62.8704 54.8802 62.4963 54.8576 62.1225 54.87C61.7512 54.8581 61.3796 54.8807 61.0125 54.9375V54.8325C61.29 54.6975 61.4325 54.63 61.4325 54.2775V50.355L61.5 46.3725ZM52.4175 54.87C51.8122 54.8932 51.2084 54.794 50.6424 54.5783C50.0764 54.3626 49.5597 54.0348 49.1234 53.6146C48.6871 53.1944 48.3401 52.6904 48.1033 52.1329C47.8664 51.5754 47.7445 50.9758 47.745 50.37C47.7106 49.4393 47.9551 48.5196 48.4472 47.7288C48.9393 46.9381 49.6564 46.3124 50.5066 45.9322C51.3568 45.5519 52.3013 45.4345 53.2187 45.5948C54.1361 45.7551 54.9847 46.186 55.6556 46.832C56.3264 47.4781 56.7888 48.3099 56.9835 49.2207C57.1783 50.1314 57.0964 51.0796 56.7483 51.9435C56.4003 52.8074 55.8021 53.5475 55.0304 54.069C54.2587 54.5904 53.3488 54.8694 52.4175 54.87ZM52.4175 46.2975C50.3925 46.2975 49.1775 47.7975 49.1775 50.2875C49.1775 52.7775 50.3925 54.2775 52.4175 54.2775C54.4425 54.2775 55.65 52.7775 55.65 50.2875C55.65 47.7975 54.4725 46.2975 52.4175 46.2975ZM38.415 50.46V54.21C38.415 54.555 38.55 54.6225 38.835 54.765V54.8325C38.0878 54.7415 37.3322 54.7415 36.585 54.8325C36.87 54.6975 37.005 54.63 37.005 54.2775V46.5C37.005 46.155 36.87 46.0875 36.585 45.945V45.8775C36.9546 45.9348 37.3287 45.9574 37.7025 45.945C38.0763 45.9561 38.4503 45.9335 38.82 45.8775V45.945C38.535 46.0875 38.4 46.155 38.4 46.5V50.0025H43.695V46.5C43.695 46.155 43.5525 46.0875 43.275 45.945V45.8775C44.0222 45.9693 44.7778 45.9693 45.525 45.8775V45.945C45.2475 46.0875 45.105 46.155 45.105 46.5V54.24C45.105 54.5925 45.2475 54.66 45.525 54.795V54.87C45.1587 54.8058 44.7866 54.7806 44.415 54.795C44.0409 54.7823 43.6665 54.8074 43.2975 54.87V54.795C43.575 54.66 43.7175 54.5925 43.7175 54.24V50.49L38.415 50.46ZM110.085 76.89C108.622 73.89 104.76 65.5125 102.84 61.14H102.495C100.335 66.0975 96.885 73.5225 95.145 77.0925C95.0066 77.4088 94.8006 77.6909 94.5414 77.9189C94.2822 78.147 93.9763 78.3155 93.645 78.4125V78.5475C94.2276 78.4326 94.8217 78.3873 95.415 78.4125C96.0107 78.3914 96.6068 78.4367 97.1925 78.5475V78.375C96.36 78.135 96.15 77.7525 96.495 76.875C96.84 75.9975 97.44 74.625 98.1 73.125H106.282C107.085 75 107.715 76.485 108.022 77.145C108.33 77.805 108.127 78.12 107.4 78.36V78.495C108.115 78.3889 108.837 78.3437 109.56 78.36C110.248 78.3306 110.937 78.3759 111.615 78.495V78.36C110.943 78.0728 110.399 77.55 110.085 76.89ZM98.3475 72.39C99.6075 69.54 101.07 66.075 102.045 63.96C102.915 65.835 104.512 69.4425 105.84 72.39H98.3475ZM0 69.8175V69.885C0 75.135 4.215 78.5175 9.0525 78.5175C10.1758 78.5257 11.2929 78.3509 12.36 78C13.508 77.6455 14.5581 77.0293 15.4275 76.2C15.398 75.4919 15.4458 74.7827 15.57 74.085H15.4275C14.28 76.5075 11.9475 77.835 9.0525 77.835C5.2275 77.835 2.0925 74.6775 2.0925 69.825C2.0925 64.9725 5.25 61.77 9.0525 61.77C10.3648 61.7069 11.6669 62.028 12.7993 62.6942C13.9317 63.3603 14.8451 64.3424 15.4275 65.52H15.57C15.4446 64.8224 15.3968 64.1131 15.4275 63.405C14.5532 62.5804 13.5049 61.9627 12.36 61.5975C11.292 61.2505 10.1755 61.0758 9.0525 61.08C4.215 61.11 0 64.5 0 69.75V69.8175ZM63.1725 61.11C58.335 61.11 54.1725 64.4775 54.1725 69.8175C54.1725 75.015 58.35 78.5175 63.1725 78.5175C67.995 78.5175 72.2325 75.015 72.1725 69.8175C72.195 64.5 68.0175 61.11 63.1725 61.11ZM63.1725 77.895C59.25 77.895 56.25 75.09 56.25 70.0575C56.25 65.025 59.25 61.8075 63.18 61.8075C67.11 61.8075 70.1175 64.995 70.1175 70.0575C70.1175 75.12 67.11 77.895 63.1725 77.895ZM89.925 78.3825H90.75V67.1475C90.75 62.1525 91.0275 61.53 92.07 61.2525V61.11C90.8951 61.3002 89.6973 61.3002 88.5225 61.11V61.2525C89.6025 61.53 89.8425 62.115 89.8425 67.11V75.12L77.595 61.2525C76.6626 61.3138 75.7263 61.266 74.805 61.11V61.2525C75.3675 61.53 75.6075 61.665 75.6075 62.325V72.4875C75.6075 77.4825 75.33 78.105 74.2875 78.3825V78.5175C75.4631 78.3372 76.6594 78.3372 77.835 78.5175V78.3825C76.755 78.105 76.515 77.5125 76.515 72.5175V63.09L89.925 78.3825ZM118.867 61.2525H116.88C115.878 61.2963 114.874 61.2486 113.88 61.11V61.2525C114.577 61.6275 114.682 61.665 114.682 62.535V77.1C114.682 77.97 114.577 78.0375 113.88 78.3825V78.5175C114.874 78.3854 115.878 78.3402 116.88 78.3825H118.867C124.717 78.3825 129.24 76.02 129.24 69.8175C129.24 63.615 124.717 61.2525 118.867 61.2525ZM126.975 69.8175C126.975 74.1825 124.575 77.655 118.095 77.655H116.46V61.98H118.095C124.612 61.98 126.975 65.4825 126.975 69.8175ZM54.54 78.3825C54.0363 78.3462 53.5482 78.192 53.115 77.9325C52.7511 77.7202 52.4116 77.4687 52.1025 77.1825C50.5678 75.774 49.2307 74.1644 48.1275 72.3975C47.8615 72.0239 47.5682 71.6704 47.25 71.34C46.8975 70.995 46.3425 70.59 46.38 70.59C46.6037 70.5444 46.8241 70.4843 47.04 70.41C47.7596 70.1961 48.401 69.7764 48.885 69.2025C49.7031 68.2333 50.138 66.998 50.1075 65.73C50.1317 65.1263 50.0294 64.5243 49.8073 63.9624C49.5851 63.4006 49.248 62.8914 48.8175 62.4675C48.3395 62.031 47.7782 61.6957 47.1672 61.4817C46.5563 61.2678 45.9084 61.1796 45.2625 61.2225H40.1925C39.6312 61.2448 39.0694 61.1969 38.52 61.08V61.2225C39.0375 61.4625 39.3225 61.635 39.3225 62.295V77.295C39.3225 77.955 39.0375 78.1275 38.52 78.3675V78.51C39.0794 78.3922 39.6513 78.3443 40.2225 78.3675C40.7962 78.3445 41.3705 78.3923 41.9325 78.51V78.405C41.4075 78.165 41.13 77.9925 41.13 77.3325V70.6125H44.25C45.2625 70.68 46.545 73.005 47.3175 74.115C48.3225 75.57 48.9525 76.2675 49.1625 76.545C49.675 77.1561 50.3138 77.6488 51.035 77.9893C51.7561 78.3298 52.5425 78.51 53.34 78.5175H54.5625L54.54 78.3825ZM44.25 69.8475C43.9425 69.885 41.115 69.8475 41.115 69.8475V62.01H44.865C45.3278 61.9677 45.794 62.0369 46.2246 62.2118C46.6552 62.3866 47.0377 62.662 47.34 63.015C47.8426 63.7296 48.1487 64.5636 48.2277 65.4336C48.3067 66.3036 48.1557 67.1792 47.79 67.9725C47.597 68.3465 47.3436 68.6861 47.04 68.9775C46.2198 69.5438 45.2467 69.8473 44.25 69.8475ZM27.2025 78.5175C22.3575 78.5175 18.2025 75.015 18.2025 69.8175C18.2025 64.4775 22.38 61.11 27.2025 61.11C32.025 61.11 36.2025 64.4775 36.2025 69.8175C36.255 75 32.04 78.5175 27.2025 78.5175ZM27.2025 61.8075C23.265 61.8075 20.2725 64.995 20.2725 70.0575C20.2725 75.12 23.2725 77.895 27.2025 77.895C31.1325 77.895 34.1325 75.12 34.1325 70.0575C34.1325 64.995 31.1325 61.8075 27.2025 61.8075ZM141 61.1475C136.162 61.1475 132 64.5075 132 69.8475C132 75.0525 136.177 78.555 141 78.555C145.822 78.555 150.06 75.0525 150 69.8475C150 64.5 145.822 61.1475 141 61.1475ZM141 77.895C137.07 77.895 134.07 75.09 134.07 70.0575C134.07 65.025 137.07 61.8075 141 61.8075C144.93 61.8075 147.93 64.995 147.93 70.0575C147.93 75.12 144.915 77.895 141 77.895Z" fill="#242829"/>
</g>
<defs>
<clipPath id="clip0_4119_2168">
<rect width="150" height="90" fill="white"/>
</clipPath>
</defs>
</svg>
