<svg preserveAspectRatio="none" width="100%" height="100%" overflow="visible" style="display: block;" viewBox="0 0 151 80" fill="none" xmlns="http://www.w3.org/2000/svg">
<g id="logo">
<path d="M38.437 55.5678C38.1577 55.431 38.0142 55.3551 38.0142 55.0057V51.2457H43.3672V55.0057C43.3672 55.3551 43.2238 55.431 42.9444 55.5678V55.6437C43.3108 55.5799 43.6827 55.5544 44.0542 55.5678C44.4207 55.606 44.7901 55.606 45.1566 55.5678C45.0237 55.5506 44.9025 55.4827 44.8182 55.378C44.7338 55.2733 44.6928 55.14 44.7035 55.0057V47.1896C44.7035 46.8402 44.847 46.7718 45.1264 46.6275V46.5743C44.7589 46.6267 44.3873 46.6445 44.0165 46.6275C43.6843 46.6275 43.2615 46.5591 42.9067 46.5591V46.6275C43.1936 46.7718 43.3294 46.8402 43.3294 47.1896V50.6077H38.0444V47.1896C38.0444 46.8402 38.1879 46.7718 38.4673 46.6275V46.5743C38.1002 46.6318 37.7287 46.6547 37.3574 46.6427C36.995 46.6275 36.5722 46.5743 36.24 46.5743V46.6275C36.5194 46.7718 36.6628 46.8402 36.6628 47.1896V55.0057C36.6628 55.3551 36.5194 55.431 36.24 55.5678V55.6437C36.6038 55.5802 36.9732 55.5547 37.3423 55.5678C37.6821 55.5678 38.0973 55.6437 38.4522 55.6437L38.437 55.5678Z" fill="white"/>
<path d="M51.9213 55.7652C52.8305 55.728 53.7087 55.4223 54.4464 54.8864C55.1841 54.3504 55.7487 53.6079 56.0699 52.7514C56.391 51.8948 56.4545 50.9621 56.2525 50.0696C56.0504 49.177 55.5917 48.3639 54.9335 47.7318C54.2753 47.0997 53.4468 46.6764 52.5511 46.5148C51.6555 46.3531 50.7324 46.4602 49.8968 46.8227C49.0613 47.1852 48.3502 47.7871 47.8523 48.5534C47.3545 49.3196 47.0917 50.2164 47.0969 51.1318C47.1015 51.7577 47.231 52.3763 47.4779 52.9508C47.7247 53.5254 48.0838 54.0442 48.5338 54.4764C48.9839 54.9086 49.5156 55.2454 50.0975 55.4668C50.6795 55.6882 51.2997 55.7897 51.9213 55.7652ZM51.9213 46.8781C54.0353 46.8781 55.2811 48.3973 55.2811 50.9951C55.2811 53.5928 54.0202 55.112 51.9213 55.112C49.8224 55.112 48.5616 53.5928 48.5616 50.9951C48.5616 48.3973 49.83 46.8781 51.9213 46.8781Z" fill="white"/>
<path d="M60.8832 47.0301H60.9512V54.9905C60.9512 55.3399 60.8153 55.4082 60.5284 55.5526V55.6209C60.8954 55.5634 61.2669 55.5405 61.6382 55.5526C61.9704 55.5526 62.3932 55.6209 62.748 55.6209V55.5526C62.4611 55.4082 62.3252 55.3399 62.3252 54.9905V47.0301H62.4612C63.5708 47.0181 64.6597 47.3323 65.5944 47.934L65.6699 47.858C65.4937 47.4427 65.3523 47.0133 65.2471 46.5743H58.2407C58.1251 47.0227 57.9839 47.4639 57.8179 47.896L57.8858 47.9719C58.7611 47.3475 59.8103 47.0178 60.8832 47.0301Z" fill="white"/>
<path d="M70.0187 55.2032H69.46V51.2078C72.0723 51.2078 72.4045 51.2609 72.5404 51.9066H72.5933C72.5305 51.5994 72.5077 51.2854 72.5253 50.9723C72.5138 50.6593 72.5366 50.346 72.5933 50.038H72.5253C72.3818 50.6077 72.0497 50.7444 69.4449 50.7444V47.0149H70.3433C70.9068 46.9646 71.4745 47.0273 72.0137 47.1994C72.5528 47.3715 73.0526 47.6496 73.4842 48.0175L73.5521 47.9264C73.4162 47.5086 73.235 46.9237 73.1293 46.5743H68.705C68.3728 46.5743 67.95 46.4832 67.5951 46.4832V46.5743C67.882 46.6958 68.0255 46.787 68.0255 47.1364V55.1272C68.0117 55.263 67.9653 55.3934 67.8903 55.5072C67.8154 55.621 67.7141 55.7147 67.5951 55.7804C67.9844 55.8051 68.3747 55.7508 68.7428 55.6209H73.6351C73.7786 55.2715 74.058 54.6335 74.2014 54.3372L74.1335 54.2689C73.1671 54.9905 71.6344 55.2032 70.0187 55.2032Z" fill="white"/>
<path d="M81.8797 55.5526C82.0458 55.1272 82.3026 54.5651 82.4309 54.322L82.3554 54.2537C81.2979 54.9453 80.0407 55.2608 78.7842 55.15H78.218V47.1896C78.218 46.8402 78.3615 46.7718 78.6484 46.6275V46.5743C78.2788 46.6316 77.9047 46.6544 77.531 46.6427C77.1988 46.6427 76.7759 46.5743 76.4286 46.5743V46.6123C76.708 46.749 76.8514 46.825 76.8514 47.1744V54.9905C76.8514 55.3399 76.708 55.4082 76.4286 55.5526V55.6209C76.9286 55.5486 77.4343 55.5257 77.9387 55.5526H81.8797Z" fill="white"/>
<path d="M99.275 55.1348C99.2627 55.2691 99.2176 55.3983 99.1439 55.5109C99.0702 55.6235 98.9699 55.7161 98.8521 55.7804C99.2334 55.8055 99.6159 55.7538 99.9771 55.6285H104.869C105.013 55.2715 105.3 54.6411 105.436 54.3372L105.368 54.2689C104.379 54.9905 102.854 55.2032 101.23 55.2032H100.664V51.2078C103.269 51.2078 103.601 51.2609 103.745 51.9142H103.82C103.75 51.608 103.725 51.2933 103.745 50.9799C103.731 50.6665 103.757 50.3527 103.82 50.0456H103.745C103.601 50.6077 103.254 50.752 100.664 50.752V47.0149H101.563C102.127 46.9656 102.696 47.0288 103.236 47.2009C103.776 47.3729 104.277 47.6504 104.711 48.0175L104.786 47.934C104.621 47.4889 104.48 47.035 104.364 46.5743H99.962C99.6222 46.5743 99.207 46.4908 98.8521 46.4908V46.5743C99.1315 46.6958 99.275 46.787 99.275 47.144V55.1348Z" fill="white"/>
<path d="M113.62 54.2537C112.562 54.9453 111.305 55.2608 110.049 55.15H109.475V47.1896C109.475 46.8402 109.611 46.7718 109.898 46.6275V46.5743C109.531 46.6314 109.159 46.6543 108.788 46.6427C108.456 46.6427 108.033 46.5743 107.678 46.5743V46.6123C107.957 46.749 108.101 46.825 108.101 47.1744V54.9905C108.101 55.3399 107.957 55.4082 107.678 55.5526V55.6209C108.178 55.5486 108.684 55.5257 109.188 55.5526H113.114C113.268 55.1305 113.449 54.7194 113.658 54.322L113.62 54.2537Z" fill="white"/>
<path d="M9.38465 79.1527C5.44355 79.1527 2.1744 75.9473 2.1744 70.9341C2.1744 65.9208 5.42845 62.723 9.38465 62.723C12.3594 62.723 14.7678 63.9839 15.9607 66.5209L16.1042 66.4753L15.9909 64.3637C14.4809 62.7306 11.8535 61.9103 9.36955 61.9103C4.3639 61.8875 0 65.3967 0 70.8809C0 76.3651 4.3639 79.8819 9.36955 79.9959C10.6043 80.0331 11.8337 79.8181 12.9834 79.3638C14.1332 78.9094 15.1794 78.2252 16.0589 77.3525L16.1646 76.0157L16.0211 75.9017C14.4356 78.0817 12.5934 79.1527 9.38465 79.1527Z" fill="white"/>
<path d="M27.4669 61.9027C22.5518 61.9027 18.3692 65.4119 18.3692 70.8885C18.3692 76.3651 22.5594 79.8743 27.4669 79.8743C32.3744 79.8743 36.5269 76.3651 36.5269 70.8885C36.5269 65.4119 32.3744 61.9027 27.4669 61.9027ZM27.4669 79.092C23.3446 79.092 20.5133 75.9777 20.5133 70.8733C20.5133 65.7689 23.405 62.6546 27.4669 62.6546C31.5288 62.6546 34.4204 65.7917 34.4204 70.8809C34.4204 75.9701 31.559 79.092 27.4669 79.092Z" fill="white"/>
<path d="M73.0689 70.8809C73.0689 65.4043 68.8635 61.8951 64.0089 61.8951C59.1542 61.8951 54.9489 65.4043 54.9489 70.8809C54.9489 76.3575 59.1316 79.8667 64.0089 79.8667C68.8862 79.8667 73.0689 76.3651 73.0689 70.8809ZM57.0101 70.8809C57.0101 65.7537 59.8791 62.6698 63.9712 62.6698C68.0633 62.6698 70.9247 65.7917 70.9247 70.8809C70.9247 75.9701 68.0633 79.0996 63.9712 79.0996C59.8791 79.0996 57.0101 75.9777 57.0101 70.8809Z" fill="white"/>
<path d="M91.438 62.2673C91.0131 62.2605 90.5891 62.2224 90.1696 62.1533L90.1168 62.2976C90.3451 62.363 90.5443 62.5047 90.6816 62.6995C90.8189 62.8942 90.886 63.1303 90.8718 63.3686C90.97 64.6751 91.0605 66.8931 91.0605 70.8277C91.0605 73.0001 91.0606 74.9598 91.1134 76.4106C87.648 72.6127 83.3973 67.7514 78.7087 62.2597C78.2748 62.3038 77.8386 62.3215 77.4026 62.3128C76.9873 62.3128 76.1795 62.2597 75.5302 62.1989L75.4849 62.3356C75.8214 62.4543 76.1184 62.665 76.3425 62.9441C76.5665 63.2232 76.7088 63.5596 76.7533 63.9155C76.7533 64.5916 76.7986 66.7488 76.7986 70.8429C76.7986 74.9371 76.7986 76.9955 76.6627 78.302C76.6813 78.5412 76.6159 78.7793 76.4779 78.975C76.34 79.1707 76.1382 79.3115 75.9077 79.373L75.953 79.5173C76.3912 79.4571 76.8322 79.4191 77.2742 79.4034C77.7019 79.4067 78.1286 79.4448 78.5502 79.5173L78.5955 79.373C78.3758 79.2937 78.1856 79.1485 78.0506 78.9569C77.9156 78.7654 77.8422 78.5368 77.8405 78.302C77.7423 76.9955 77.6517 74.7472 77.6517 70.8429C77.6517 67.5691 77.6518 65.7537 77.6065 64.0067C81.9855 69.0199 86.4324 73.9572 91.4078 79.8743H91.9439C91.8986 78.1881 91.8306 74.9143 91.8306 70.8885C91.8306 66.8627 91.8306 64.7359 91.9741 63.4294C91.9459 63.1885 92.0074 62.9457 92.1469 62.7479C92.2864 62.55 92.4938 62.4113 92.7291 62.3584V62.1381C92.3013 62.2041 91.8704 62.2472 91.438 62.2673Z" fill="white"/>
<path d="M110.819 77.8918C109.309 74.8535 105.481 66.4222 103.548 62.0318H103.193C101.027 67.0374 97.5611 74.4965 95.817 78.0969C95.7041 78.4018 95.5248 78.6773 95.2923 78.9034C95.0597 79.1295 94.7799 79.3003 94.4731 79.4034L94.526 79.5477C95.0522 79.483 95.5814 79.4449 96.1115 79.4338C96.66 79.4165 97.2089 79.4547 97.7498 79.5477L97.7951 79.4034C97.0401 79.1679 96.8363 78.7729 97.1836 77.8842C97.5309 76.9955 98.0971 75.6055 98.7691 74.0863H106.961C107.761 75.9625 108.471 77.5044 108.735 78.1805C108.999 78.8565 108.848 79.1375 108.124 79.373L108.169 79.5173C108.78 79.4718 109.679 79.411 110.298 79.411C110.917 79.411 111.695 79.4566 112.306 79.5173L112.359 79.373C111.69 79.0744 111.146 78.5506 110.819 77.8918ZM99.056 73.3343C100.302 70.4555 101.797 67.0222 102.756 64.9182C103.624 66.7868 105.232 70.3644 106.568 73.3343H99.056Z" fill="white"/>
<path d="M119.532 62.2445C118.097 62.2445 116.512 62.2445 115.409 62.3128H113.393V62.5255H113.741C114.185 62.5205 114.614 62.6862 114.941 62.9889C115.143 63.1718 115.294 63.4049 115.379 63.6649C115.379 64.622 115.424 67.0298 115.424 70.8049C115.424 74.8991 115.424 77.3905 115.379 78.1577C115.386 78.317 115.366 78.4763 115.319 78.6286C115.268 78.7952 115.169 78.9428 115.035 79.0524C114.9 79.1621 114.736 79.2287 114.564 79.2439V79.4186H114.639C116.089 79.4945 118.15 79.5477 119.569 79.5477C127.436 79.5477 130.253 74.7927 130.253 70.615C130.268 64.4169 125.406 62.2445 119.532 62.2445ZM119.358 78.9552C119.011 78.9552 117.893 78.9552 117.546 78.9097C117.501 77.4741 117.44 75.0662 117.44 70.9265C117.44 67.0678 117.44 64.7283 117.486 62.8977C117.848 62.8521 118.86 62.8521 119.154 62.8521C125.64 62.8521 128.003 66.331 128.033 70.691C128.048 76.0157 125.187 78.9476 119.358 78.9476V78.9552Z" fill="white"/>
<path d="M141.94 61.9027C137.033 61.9027 132.88 65.4119 132.88 70.8885C132.88 76.3651 137.07 79.8743 141.94 79.8743C146.81 79.8743 151 76.3651 151 70.8809C151 65.3967 146.832 61.9027 141.94 61.9027ZM141.94 79.092C137.818 79.092 134.986 75.9777 134.986 70.8733C134.986 65.7689 137.848 62.6546 141.94 62.6546C146.032 62.6546 148.894 65.7917 148.894 70.8733C148.894 75.9549 145.994 79.092 141.94 79.092Z" fill="white"/>
<path d="M54.2619 79.2363C54.1999 79.2217 54.1411 79.196 54.0882 79.1603C53.7064 78.944 53.3472 78.6895 53.0161 78.4008C51.3759 76.9839 49.9357 75.3483 48.7353 73.5394C48.4351 73.1558 48.1097 72.793 47.7613 72.4532C47.4736 72.195 47.1539 71.9754 46.81 71.8C47.4222 71.8046 48.028 71.6743 48.5849 71.4185C49.1418 71.1626 49.6364 70.7873 50.0338 70.3188C50.9054 69.3578 51.3734 68.0948 51.34 66.7944C51.3639 66.1725 51.2519 65.553 51.0118 64.9794C50.7718 64.4059 50.4096 63.8923 49.9508 63.475C48.8881 62.5707 47.5197 62.1136 46.1305 62.1989H38.2181V62.4496H38.5654C39.0056 62.4467 39.431 62.6092 39.7583 62.9053C39.9182 63.0491 40.047 63.2245 40.1366 63.4205C40.2262 63.6165 40.2748 63.829 40.2792 64.0447C40.2792 64.0447 40.2792 78.3172 40.2792 78.3856V78.0513C40.2792 78.697 39.9622 79.2211 39.4412 79.2819V79.4566C40.0372 79.3823 40.6376 79.3493 41.2381 79.3578C41.9478 79.3578 42.7481 79.3578 42.9897 79.4186V79.2363C42.6122 79.1527 42.1517 79.016 42.1517 78.3704V78.021C42.1517 78.021 42.1517 77.5348 42.1517 71.8076H44.9678C45.0848 71.8529 45.1924 71.9199 45.2849 72.0051C46.232 73.0272 47.0955 74.1245 47.867 75.2865C48.4759 76.1328 49.1313 76.9442 49.83 77.7171C50.4053 78.35 51.105 78.8558 51.8848 79.2023C52.6647 79.5488 53.5075 79.7285 54.36 79.73H55.6662V79.5401C55.1855 79.5104 54.7121 79.4079 54.2619 79.2363ZM45.0207 71.0328H42.0611C42.0611 68.9819 42.0611 66.369 42.0611 62.9889C43.2993 62.9889 44.545 62.9889 45.7907 63.0344C46.2878 63.0149 46.7831 63.1047 47.2421 63.2976C47.7011 63.4904 48.1127 63.7817 48.4483 64.151C48.9904 64.8409 49.3246 65.6725 49.4116 66.5474C49.4985 67.4224 49.3346 68.3041 48.9391 69.0883C48.1011 70.5467 46.5609 70.9493 45.0207 71.0328Z" fill="white"/>
<path d="M88.184 46.9161C88.2804 47.0025 88.3532 47.1124 88.3954 47.2352C88.3954 47.4023 88.3954 47.6605 88.3954 47.9947C88.3954 48.6784 88.3954 49.7114 88.3954 51.071C88.3954 53.2814 88.3954 54.6183 88.3954 55.036C88.4053 55.1117 88.4053 55.1883 88.3954 55.2639C88.3724 55.337 88.3287 55.4018 88.2697 55.4504C88.2107 55.4989 88.139 55.5291 88.0632 55.5374H87.9877V55.7956H88.1085C88.8635 55.7956 89.9582 55.864 90.7963 55.864C95.1526 55.864 96.7004 53.2206 96.7004 50.9571C96.7004 47.9871 94.5939 46.3464 90.7736 46.3464C89.845 46.3464 88.8937 46.3464 88.5087 46.3464H87.3233V46.6503H87.58C87.6934 46.6503 87.8057 46.6739 87.9096 46.7197C88.0136 46.7654 88.107 46.8323 88.184 46.9161ZM89.694 46.863C89.845 46.863 90.1243 46.863 90.5169 46.863C94.4127 46.863 95.2508 49.1417 95.2659 51.0027C95.3033 51.5757 95.2279 52.1504 95.0439 52.694C94.8599 53.2376 94.571 53.7392 94.1938 54.1701C93.2143 55.017 91.9406 55.4378 90.6528 55.3399C90.2074 55.3399 89.8978 55.3399 89.7468 55.3399C89.7468 54.5803 89.694 53.2814 89.694 51.109C89.694 49.0885 89.694 47.8352 89.7167 46.863H89.694Z" fill="white"/>
<path d="M75.7582 0.00104342H75.6173C70.4028 -0.0526594 65.3788 1.96853 61.6414 5.62363C59.8296 7.43137 58.3917 9.58172 57.4107 11.9507C56.4297 14.3196 55.9251 16.8604 55.9258 19.4263C55.8988 22.0041 56.3815 24.5616 57.3458 26.9504C58.3102 29.3392 59.7369 31.5117 61.5433 33.3419C63.3497 35.1721 65.4998 36.6235 67.8687 37.6118C70.2377 38.6002 72.7783 39.1058 75.3433 39.0994H75.3903C86.3713 39.0994 94.9643 30.6046 95.0739 19.7765C95.1248 8.74772 86.6219 0.115148 75.7582 0.00104342ZM75.3433 37.7184H75.2924C72.9058 37.7179 70.5429 37.2437 68.3391 36.3231C66.1353 35.4024 64.1342 34.0534 62.4504 32.3535C60.7667 30.6535 59.4336 28.6362 58.5275 26.4171C57.6215 24.198 57.1604 21.821 57.1707 19.4224C57.1523 17.034 57.6132 14.6663 58.526 12.4611C59.4388 10.2558 60.7846 8.25815 62.4831 6.58761C65.9745 3.17755 70.663 1.28873 75.5312 1.33095H75.6682C85.8467 1.36636 93.7429 9.45989 93.6764 19.7214C93.6411 29.8373 85.5531 37.7184 75.3433 37.7184Z" fill="var(--fill-0, #DA4E1F)"/>
<path d="M75.7349 2.58622H75.5979C71.0493 2.53099 66.6644 4.28961 63.4032 7.47696C61.8189 9.03816 60.5633 10.9038 59.7112 12.9627C58.8591 15.0217 58.4279 17.2319 58.4432 19.4618C58.4266 21.7033 58.8507 23.926 59.6912 26.0023C60.5316 28.0786 61.7718 29.9676 63.3406 31.5608C64.9049 33.1595 66.7726 34.4263 68.833 35.286C70.8935 36.1457 73.1047 36.5808 75.3356 36.5657H75.3865C84.9543 36.5657 92.4394 29.1371 92.5138 19.7766C92.5764 10.2312 85.2048 2.63737 75.7349 2.58622ZM59.1674 19.4107C59.1544 17.2777 59.5656 15.1636 60.3771 13.1926C61.1885 11.2216 62.3838 9.4335 63.8926 7.93338C67.0191 4.88533 71.2149 3.19876 75.5705 3.23937H75.7075C77.8449 3.24639 79.9597 3.67992 81.9292 4.51482C83.8986 5.34973 85.6835 6.56937 87.1803 8.10301C88.677 9.63664 89.8559 11.4537 90.6485 13.4489C91.4411 15.444 91.8316 17.5775 91.7974 19.7255C91.7872 23.2575 90.6206 26.6879 88.4776 29.4873L87.726 28.724V27.3311H86.6102L84.0734 24.207V22.9873H83.0556L79.1995 18.1319C77.9696 17.8777 76.7164 17.755 75.4608 17.766C74.1848 17.7623 72.9119 17.8942 71.6635 18.1595L67.8074 23.0266H66.8874V24.1795L64.3506 27.3547H63.2114V28.7594L62.5067 29.4243C60.3247 26.5483 59.1505 23.0275 59.1674 19.4107ZM65.4311 28.4053L66.6917 27.1894L68.011 28.3305H67.7604V28.96C67.0792 29.023 66.4255 29.0859 65.803 29.1646V28.4092H65.4389L65.4311 28.4053ZM68.9857 22.8968L69.8509 22.0784L70.7552 22.8968H70.5556V23.3217C70.1015 23.3611 69.663 23.3965 69.2363 23.4476V22.9007L68.9857 22.8968ZM72.5639 22.3931L73.6326 21.4882L74.6505 22.4443H74.3256V23.1447L72.8575 23.184V22.3971L72.5639 22.3931ZM74.0476 27.6223H73.5739V28.6689C72.8732 28.6689 72.1802 28.7043 71.503 28.7318H71.4521V27.6655H71.0019L72.4699 26.2609L74.0476 27.6223ZM77.1795 27.701L78.6475 26.2963L80.2134 27.6616H79.7045V28.724C79.0116 28.7003 78.3069 28.6767 77.5944 28.661V27.6891H77.2029L77.1795 27.701ZM78.2717 22.3931V23.1801C77.7941 23.1525 77.3047 23.1407 76.8036 23.1289V22.4482H76.5022L77.52 21.4921L78.5888 22.3971L78.2717 22.3931ZM80.3426 22.944L81.2509 22.1295L82.116 22.944H81.8616V23.4594C81.4388 23.4083 80.9964 23.3729 80.5462 23.3335V22.9401H80.3544L80.3426 22.944ZM83.1926 28.3305L84.5041 27.1894L85.7725 28.4053H85.4084V29.1922C84.7664 29.1174 84.1165 29.0545 83.451 29.0033V28.358H83.1965L83.1926 28.3305Z" fill="var(--fill-0, #DA4E1F)"/>
<path d="M70.8375 17.164L71.7026 17.8172C72.9338 17.5627 74.1883 17.4401 75.4452 17.4512C76.7015 17.4518 77.9549 17.5744 79.1878 17.8172L80.0529 17.164C78.5494 16.7887 77.0061 16.5984 75.4569 16.5974C73.901 16.6145 72.3518 16.8045 70.8375 17.164Z" fill="var(--fill-0, #DA4E1F)"/>
<path d="M80.143 16.9201V15.2439C77.0476 14.4938 73.8193 14.4938 70.7239 15.2439V16.9201C72.2623 16.5464 73.8391 16.3562 75.4217 16.3535C77.0126 16.3477 78.5982 16.538 80.143 16.9201Z" fill="var(--fill-0, #DA4E1F)"/>
<path d="M79.3639 12.0333L75.4491 5.5608L71.5852 12.0333C72.8632 11.7708 74.1643 11.639 75.4687 11.6398C76.7767 11.6443 78.0812 11.776 79.3639 12.0333Z" fill="var(--fill-0, #DA4E1F)"/>
<path d="M79.1917 14.5199V12.5133C79.0719 12.4837 78.9503 12.4627 78.8276 12.4503V14.457C78.95 14.4712 79.0716 14.4923 79.1917 14.5199Z" fill="var(--fill-0, #DA4E1F)"/>
<path d="M78.1464 14.3429V12.3362L77.5318 12.2615V14.2681L78.1464 14.3429Z" fill="var(--fill-0, #DA4E1F)"/>
<path d="M76.7097 14.2052V12.1985L75.8406 12.1592V14.1658L76.7097 14.2052Z" fill="var(--fill-0, #DA4E1F)"/>
<path d="M75.1085 14.1658V12.171C74.7953 12.171 74.4939 12.171 74.1925 12.2103V14.217C74.4782 14.1934 74.7914 14.1658 75.1085 14.1658Z" fill="var(--fill-0, #DA4E1F)"/>
<path d="M73.4251 14.2681V12.2615L72.8105 12.3362V14.3429L73.4251 14.2681Z" fill="var(--fill-0, #DA4E1F)"/>
<path d="M72.1137 14.457V12.4503C72.0158 12.4503 71.8514 12.4975 71.7496 12.5133V14.5199C71.8788 14.4963 72.0041 14.4688 72.1137 14.457Z" fill="var(--fill-0, #DA4E1F)"/>
</g>
</svg>
