<svg preserveAspectRatio="xMidYMid meet" width="100%" height="100%" overflow="visible" style="display: block;" viewBox="0 0 133 80" fill="none" xmlns="http://www.w3.org/2000/svg">
<g id="Frame" clip-path="url(#clip0_4117_486)">
<path id="Vector" d="M66.5 2.16C63.6866 2.17186 60.9398 3.01904 58.6064 4.5946C56.2729 6.17017 54.4573 8.40348 53.3889 11.0126C52.3204 13.6217 52.047 16.4897 52.6031 19.2545C53.1592 22.0193 54.5199 24.557 56.5134 26.5471C58.507 28.5373 61.044 29.8907 63.8042 30.4366C66.5643 30.9825 69.424 30.6964 72.0221 29.6143C74.6202 28.5323 76.8403 26.7028 78.4021 24.3569C79.9639 22.011 80.7975 19.2538 80.7975 16.4333C80.7817 12.6423 79.2683 9.01196 76.5888 6.3369C73.9092 3.66184 70.2816 2.15997 66.5 2.16ZM60.0295 23.6133H59.85V24.14C59.2914 24.14 58.7328 24.2333 58.2141 24.2933V23.6267H57.855L58.9057 22.6067L60.0295 23.6133ZM62.4102 19.08H62.2241V19.3933L61.1135 19.4867V19.08H60.894L61.6389 18.3733L62.4102 19.08ZM65.0304 23.08H64.7245V23.88C64.1393 23.88 63.5541 23.9133 62.9622 23.9467V23.0267H62.51L63.84 21.8867L65.0304 23.08ZM65.3761 18.6667V19.2533H64.1392V18.5867H63.84L64.7377 17.8133L65.6023 18.6133H65.3562L65.3761 18.6667ZM67.3711 18.6667L68.2357 17.8667L69.16 18.62H68.8807V19.2867C68.4817 19.2533 68.0827 19.2533 67.6438 19.2533V18.6667H67.3978H67.3711ZM70.0311 23.04V23.94C69.4393 23.94 68.8541 23.94 68.2689 23.8733V23.0733H67.963L69.16 21.8867L70.49 23.0267L70.0311 23.04ZM71.8533 19.0933V19.5C71.4809 19.4667 71.1417 19.4333 70.7427 19.4067V19.0933H70.5565L71.3279 18.3867L72.0328 19.0933H71.8533ZM74.8125 23.66V24.3267C74.2872 24.2667 73.7352 24.2067 73.1766 24.1733V23.6467H72.9638L74.0744 22.66L75.145 23.6467L74.8125 23.66ZM76.761 23.94V22.7533H75.8366L73.702 20.1333V19.1133H72.8375L69.6255 15.2933C68.6006 15.0741 67.5546 14.969 66.5067 14.98C65.4586 14.9668 64.4124 15.0719 63.3878 15.2933L60.1825 19.1133H59.2914V20.1333L57.19 22.7533H56.2324V23.9267L55.5674 24.5933C53.7742 22.2388 52.8086 19.3556 52.821 16.3933C52.821 12.7563 54.2621 9.26829 56.8274 6.69654C59.3928 4.12479 62.8721 2.68 66.5 2.68C70.1279 2.68 73.6072 4.12479 76.1726 6.69654C78.7379 9.26829 80.1791 12.7563 80.1791 16.3933C80.1944 19.3561 79.2285 22.2402 77.4326 24.5933L76.761 23.94Z" fill="var(--fill-0, #D95A40)"/>
<path id="Vector_2" d="M62.6563 14.4267L63.3678 14.98C64.3976 14.7629 65.4477 14.6579 66.5 14.6667C67.5468 14.6722 68.5909 14.7748 69.6189 14.9733L70.3304 14.42C67.8134 13.807 65.1866 13.807 62.6696 14.42L62.6563 14.4267Z" fill="var(--fill-0, #D95A40)"/>
<path id="Vector_3" d="M70.4368 14.2133V12.8267C69.1441 12.51 67.8175 12.3532 66.4867 12.36C65.1427 12.352 63.8028 12.5087 62.4967 12.8267V14.2133C63.8035 13.8992 65.1429 13.7426 66.4867 13.7467C67.8188 13.7134 69.1489 13.8705 70.4368 14.2133ZM69.7851 10.1133L66.5 4.66667L63.2881 10.0933C64.3539 9.86014 65.4423 9.74611 66.5333 9.75333C67.6262 9.7684 68.7152 9.88895 69.7851 10.1133ZM69.6322 12.2067V10.5133C69.5314 10.4874 69.4293 10.4673 69.3263 10.4533V12.1467C69.4306 12.1515 69.5337 12.1717 69.6322 12.2067ZM68.7677 12.0533V10.36C68.6147 10.36 68.4285 10.36 68.2423 10.3V12C68.4285 12 68.6147 12 68.7677 12.0533ZM67.564 11.9333V10.2333H66.8525V11.9267C67.0985 11.9 67.3512 11.9333 67.564 11.9333ZM66.2407 11.9V10.2333C65.9809 10.2275 65.721 10.2386 65.4626 10.2667V11.96C65.7207 11.9261 65.9804 11.9061 66.2407 11.9ZM64.8176 12V10.3C64.6314 10.3 64.4784 10.3 64.2922 10.36V12.0533C64.505 12 64.6314 12 64.8176 12ZM63.7336 12.1467V10.4533C63.6291 10.4571 63.5259 10.4774 63.4277 10.5133V12.2067C63.527 12.1747 63.6296 12.1546 63.7336 12.1467Z" fill="var(--fill-0, #D95A40)"/>
<path id="Vector_4" d="M66.5 32.8333C63.2631 32.8175 60.1035 31.8406 57.4201 30.0259C54.7367 28.2111 52.6498 25.64 51.423 22.6371C50.1961 19.6342 49.8843 16.3343 50.5269 13.1538C51.1694 9.97342 52.7376 7.05518 55.0334 4.7676C57.3292 2.48002 60.2496 0.925671 63.4259 0.300819C66.6022 -0.324033 69.892 0.00862845 72.8799 1.2568C75.8677 2.50497 78.4197 4.61268 80.2135 7.3138C82.0074 10.0149 82.9627 13.1883 82.9587 16.4333C82.9376 20.7937 81.1936 24.9679 78.1087 28.0418C75.0238 31.1157 70.8495 32.8387 66.5 32.8333ZM66.5 1.08C63.4787 1.09712 60.5301 2.01094 58.0262 3.70616C55.5224 5.40138 53.5754 7.80206 52.431 10.6053C51.2867 13.4086 50.9961 16.4888 51.596 19.4575C52.1958 22.4261 53.6593 25.1502 55.8018 27.2859C57.9442 29.4217 60.6696 30.8734 63.6342 31.4581C66.5988 32.0427 69.6696 31.7341 72.4594 30.571C75.2491 29.408 77.6328 27.4426 79.3097 24.923C80.9865 22.4034 81.8814 19.4423 81.8814 16.4133C81.8621 12.3376 80.2326 8.43569 77.3497 5.56185C74.4669 2.688 70.5655 1.07643 66.5 1.08Z" fill="var(--fill-0, #D95A40)"/>
<path id="Vector_5" d="M66.5 32.8333C63.2631 32.8175 60.1035 31.8406 57.4201 30.0259C54.7367 28.2111 52.6498 25.64 51.423 22.6371C50.1961 19.6342 49.8843 16.3343 50.5269 13.1538C51.1694 9.97342 52.7376 7.05518 55.0334 4.7676C57.3292 2.48002 60.2496 0.925671 63.4259 0.300819C66.6022 -0.324033 69.892 0.00862845 72.8799 1.2568C75.8677 2.50497 78.4197 4.61268 80.2135 7.3138C82.0074 10.0149 82.9627 13.1883 82.9587 16.4333C82.9376 20.7937 81.1936 24.9679 78.1087 28.0418C75.0238 31.1157 70.8495 32.8387 66.5 32.8333ZM66.5 1.08C63.4787 1.09712 60.5301 2.01094 58.0262 3.70616C55.5224 5.40138 53.5754 7.80206 52.431 10.6053C51.2867 13.4086 50.9961 16.4888 51.596 19.4575C52.1958 22.4261 53.6593 25.1502 55.8018 27.2859C57.9442 29.4217 60.6696 30.8734 63.6342 31.4581C66.5988 32.0427 69.6696 31.7341 72.4594 30.571C75.2491 29.408 77.6328 27.4426 79.3097 24.923C80.9865 22.4034 81.8814 19.4423 81.8814 16.4133C81.8621 12.3376 80.2326 8.43569 77.3497 5.56185C74.4669 2.688 70.5655 1.07643 66.5 1.08Z" fill="var(--fill-0, #D95A40)"/>
<path id="Vector_6" d="M58.7328 77.1667C57.9614 76.8267 57.8351 76.64 57.8351 76.36C57.8351 76.08 58.1144 75.78 58.5466 75.78C58.7882 75.7794 59.0248 75.8489 59.2278 75.9802C59.4308 76.1116 59.5915 76.299 59.6904 76.52L59.6239 75.8133C59.3091 75.5927 58.9303 75.4825 58.5466 75.5C57.742 75.5 57.2166 75.9333 57.2166 76.6133C57.2166 77.1667 57.5558 77.4467 58.3604 77.8467C59.1651 78.2467 59.2848 78.4 59.2848 78.7733C59.2846 78.8827 59.2613 78.9908 59.2165 79.0904C59.1716 79.1901 59.1062 79.2791 59.0245 79.3515C58.9428 79.424 58.8467 79.4782 58.7425 79.5107C58.6384 79.5432 58.5285 79.5532 58.4203 79.54C58.1361 79.5359 57.8593 79.4494 57.6233 79.2908C57.3872 79.1323 57.2021 78.9085 57.0903 78.6467H57.0304L57.1235 79.4467C57.478 79.6864 57.9 79.8056 58.3272 79.7867C59.4045 79.7867 59.7436 79.12 59.7436 78.5533C59.9697 77.78 59.4444 77.4733 58.7328 77.1667ZM64.5715 78.9867C64.4992 78.9867 64.4284 79.0082 64.3683 79.0485C64.3082 79.0887 64.2613 79.146 64.2336 79.213C64.2059 79.28 64.1987 79.3537 64.2128 79.4249C64.2269 79.496 64.2617 79.5613 64.3129 79.6126C64.364 79.6639 64.4292 79.6988 64.5001 79.713C64.5711 79.7271 64.6446 79.7198 64.7115 79.6921C64.7783 79.6643 64.8354 79.6173 64.8756 79.557C64.9158 79.4967 64.9373 79.4258 64.9373 79.3533C64.9425 79.3039 64.9366 79.2539 64.9201 79.207C64.9036 79.1602 64.8768 79.1176 64.8417 79.0824C64.8067 79.0473 64.7642 79.0204 64.7174 79.0039C64.6707 78.9873 64.6208 78.9814 64.5715 78.9867ZM71.6737 77.4133L71.5806 77.38H71.6737C71.8672 77.3145 72.0354 77.19 72.1547 77.0238C72.274 76.8576 72.3383 76.6581 72.3387 76.4533C72.3317 76.3084 72.2948 76.1665 72.2301 76.0366C72.1655 75.9067 72.0747 75.7917 71.9634 75.6989C71.852 75.6062 71.7227 75.5376 71.5835 75.4976C71.4444 75.4576 71.2984 75.4471 71.155 75.4667C71.0076 75.4529 70.8589 75.4697 70.7183 75.5161C70.5777 75.5625 70.4481 75.6375 70.3376 75.7363C70.2272 75.8351 70.1382 75.9558 70.0763 76.0906C70.0145 76.2254 69.981 76.3716 69.978 76.52C69.9911 76.7247 70.06 76.9219 70.1773 77.09C70.2946 77.2581 70.4557 77.3907 70.643 77.4733L70.7361 77.5067H70.643C70.4012 77.5751 70.1884 77.7209 70.0371 77.922C69.8858 78.123 69.8043 78.3682 69.8051 78.62C69.8159 78.7831 69.8592 78.9423 69.9323 79.0883C70.0054 79.2344 70.1069 79.3644 70.2308 79.4706C70.3547 79.5768 70.4985 79.6571 70.6538 79.7068C70.8091 79.7565 70.9727 79.7746 71.1351 79.76C71.3035 79.768 71.4719 79.7424 71.6303 79.6845C71.7888 79.6266 71.9342 79.5377 72.058 79.4229C72.1818 79.3081 72.2815 79.1697 72.3514 79.0158C72.4213 78.8619 72.4599 78.6957 72.4651 78.5267C72.4591 78.2831 72.3806 78.0469 72.2395 77.8484C72.0985 77.65 71.9014 77.4985 71.6737 77.4133ZM70.6563 76.4533C70.6563 76.0867 70.8358 75.84 71.1484 75.84C71.4609 75.84 71.6737 76.1467 71.6737 76.64C71.6737 76.92 71.5141 77.3067 71.2415 77.3067C70.9688 77.3067 70.6563 76.92 70.6563 76.4533ZM71.3213 79.5067C70.7959 79.5067 70.6097 78.9867 70.6097 78.52C70.5868 78.4103 70.5919 78.2966 70.6244 78.1894C70.657 78.0822 70.7159 77.985 70.7959 77.9067C70.8441 77.8457 70.9059 77.797 70.9764 77.7646C71.0469 77.7321 71.124 77.7169 71.2016 77.72C71.5341 77.72 71.9065 78.0933 71.9065 78.7067C71.8865 79.1667 71.6072 79.5067 71.3013 79.5067H71.3213ZM75.3179 77.38C75.5072 77.3268 75.6742 77.2136 75.7941 77.0574C75.9139 76.9012 75.9802 76.7104 75.9829 76.5133C75.9714 76.3725 75.9317 76.2355 75.866 76.1106C75.8003 75.9856 75.71 75.8753 75.6007 75.7862C75.4913 75.6971 75.3651 75.6312 75.2297 75.5923C75.0942 75.5534 74.9523 75.5424 74.8125 75.56C74.6656 75.5462 74.5175 75.5629 74.3773 75.6089C74.2371 75.6549 74.1079 75.7292 73.9975 75.8274C73.8872 75.9255 73.7981 76.0453 73.7358 76.1793C73.6735 76.3134 73.6394 76.4588 73.6355 76.6067C73.6481 76.8123 73.7168 77.0106 73.8341 77.1799C73.9513 77.3491 74.1126 77.4829 74.3005 77.5667C74.0598 77.6348 73.8478 77.7796 73.6966 77.9793C73.5454 78.179 73.4633 78.4226 73.4626 78.6733C73.4734 78.8364 73.5167 78.9956 73.5898 79.1417C73.6629 79.2877 73.7644 79.4177 73.8883 79.5239C74.0122 79.6301 74.156 79.7104 74.3113 79.7601C74.4666 79.8098 74.6302 79.8279 74.7926 79.8133C75.0975 79.843 75.4028 79.7593 75.6503 79.5782C75.8978 79.3971 76.0703 79.1312 76.1351 78.831C76.1999 78.5307 76.1525 78.2171 76.0019 77.9496C75.8512 77.6821 75.6078 77.4794 75.3179 77.38ZM74.2938 76.3933C74.2938 76.0267 74.48 75.78 74.7926 75.78C75.1051 75.78 75.3179 76.0867 75.3179 76.58C75.3179 76.86 75.1317 77.2467 74.8857 77.2467C74.6396 77.2467 74.2938 76.8867 74.2938 76.3933ZM74.9123 79.4467C74.3869 79.4467 74.2007 78.92 74.2007 78.46C74.2007 78 74.4534 77.66 74.8192 77.66C75.1849 77.66 75.4842 78.06 75.4842 78.6467C75.5041 79.1067 75.2514 79.4467 74.9123 79.4467ZM78.9621 77.38C79.1514 77.3268 79.3184 77.2136 79.4383 77.0574C79.5581 76.9012 79.6244 76.7104 79.6271 76.5133C79.6156 76.3725 79.5759 76.2355 79.5102 76.1106C79.4445 75.9856 79.3542 75.8753 79.2449 75.7862C79.1355 75.6971 79.0093 75.6312 78.8739 75.5923C78.7384 75.5534 78.5965 75.5424 78.4567 75.56C78.3098 75.5462 78.1617 75.5629 78.0215 75.6089C77.8813 75.6549 77.7521 75.7292 77.6417 75.8274C77.5313 75.9255 77.4423 76.0453 77.38 76.1793C77.3177 76.3134 77.2836 76.4588 77.2797 76.6067C77.2923 76.8123 77.361 77.0106 77.4783 77.1799C77.5955 77.3491 77.7568 77.4829 77.9447 77.5667C77.6989 77.6283 77.4803 77.7695 77.3228 77.9684C77.1653 78.1673 77.0776 78.4127 77.0735 78.6667C77.0844 78.8297 77.1276 78.989 77.2007 79.135C77.2738 79.2811 77.3753 79.411 77.4992 79.5172C77.6231 79.6234 77.7669 79.7037 77.9222 79.7534C78.0775 79.8031 78.2411 79.8212 78.4035 79.8067C78.5726 79.8175 78.7421 79.7938 78.9018 79.737C79.0615 79.6801 79.208 79.5913 79.3324 79.476C79.4568 79.3606 79.5565 79.2211 79.6254 79.066C79.6944 78.9108 79.7311 78.7432 79.7335 78.5733C79.7361 78.3204 79.6644 78.0724 79.5272 77.8601C79.39 77.6479 79.1934 77.4809 78.9621 77.38ZM77.9114 76.3933C77.9114 76.0267 78.0976 75.78 78.4035 75.78C78.7094 75.78 78.9289 76.0867 78.9289 76.58C78.9289 76.86 78.7427 77.2467 78.4966 77.2467C78.2506 77.2467 77.9114 76.8867 77.9114 76.3933ZM78.5299 79.4467C78.0045 79.4467 77.8183 78.92 77.8183 78.46C77.8183 78 78.0644 77.66 78.4368 77.66C78.8092 77.66 79.1018 78.06 79.1018 78.6467C79.135 79.1067 78.869 79.4467 78.5299 79.4467ZM62.131 75.7133C61.5853 75.667 61.0405 75.8106 60.5882 76.12V76.0867C60.6856 75.898 60.7679 75.7018 60.8342 75.5H64.1592C64.2191 75.6867 64.3787 75.96 64.4053 76.0867V76.12C63.9507 75.8101 63.4035 75.6665 62.8558 75.7133V79.4733C62.8512 79.5341 62.8671 79.5947 62.9008 79.6455C62.9346 79.6962 62.9843 79.7342 63.042 79.7533V79.7867C62.8684 79.7582 62.6924 79.747 62.5167 79.7533C62.3409 79.7482 62.165 79.7594 61.9913 79.7867V79.7533C62.1177 79.6933 62.1775 79.66 62.1775 79.4733V77.6267L62.131 75.7133ZM54.0712 77.44C55.3081 77.44 55.461 77.38 55.5209 77.1H55.5541C55.5274 77.2428 55.5162 77.3881 55.5209 77.5333C55.5162 77.6786 55.5274 77.8239 55.5541 77.9667H55.5209C55.461 77.6867 55.3081 77.6267 54.0712 77.6267V79.4733H54.3505C54.944 79.528 55.5392 79.3876 56.0462 79.0733C55.9449 79.2602 55.8625 79.4567 55.8002 79.66H53.9781C53.7324 79.6404 53.4856 79.6404 53.2399 79.66C53.2993 79.6442 53.3507 79.6067 53.3839 79.5549C53.4171 79.5031 53.4298 79.4407 53.4195 79.38V75.68C53.4241 75.6209 53.4089 75.562 53.3764 75.5125C53.3439 75.463 53.2959 75.4257 53.2399 75.4067C53.4853 75.4316 53.7326 75.4316 53.9781 75.4067H55.86C55.9199 75.5867 56.0728 75.8667 56.1061 75.9933C55.6042 75.6669 55.0047 75.5255 54.4103 75.5933H54.131L54.0712 77.44ZM67.717 76.6133V76.36C67.6213 76.4162 67.5184 76.4588 67.4111 76.4867L67.0985 76.58V76.52C67.2066 76.4556 67.3089 76.382 67.4044 76.3L67.7768 76.0267C67.8964 75.9416 68.0097 75.848 68.116 75.7467L68.3953 75.4667V79.4667C68.3953 79.62 68.4551 79.68 68.6081 79.74V79.7733C68.2592 79.7291 67.9062 79.7291 67.5573 79.7733V79.74C67.6837 79.68 67.7768 79.6467 67.7768 79.4667M95.6004 41.4667V41.3333C95.6004 41.0267 95.4807 40.9667 95.2347 40.84V40.78C95.5602 40.8305 95.8896 40.8506 96.2189 40.84C96.5503 40.8499 96.8819 40.8298 97.2097 40.78V40.84C96.9636 40.9667 96.8373 41.0267 96.8373 41.3333V48.3333H97.336C98.4369 48.4359 99.5411 48.1761 100.482 47.5933L100.548 47.6533C100.372 48.0039 100.216 48.3645 100.083 48.7333H96.6245C96.1692 48.7095 95.7127 48.7296 95.2613 48.7933V48.7C95.514 48.58 95.6337 48.52 95.6337 48.2067V44.76C95.6004 43.1 95.6004 42 95.6004 41.4667ZM89.0235 44.4533C91.3444 44.4533 91.6171 44.3333 91.7434 43.84H91.8033C91.723 44.3703 91.723 44.9097 91.8033 45.44H91.77C91.6437 44.9467 91.371 44.8267 89.0502 44.8267V48.28H89.5489C90.6495 48.3791 91.7526 48.1196 92.6944 47.54L92.7609 47.6C92.6678 47.8133 92.4217 48.3067 92.2953 48.68H88.8374C88.3931 48.6575 87.9478 48.6776 87.5074 48.74C87.7534 48.62 87.8731 48.56 87.8731 48.2467V41.3333C87.8731 41.02 87.7534 40.96 87.5074 40.84V40.7733C87.9471 40.8425 88.3929 40.8648 88.8374 40.84H92.2953C92.4483 41.2067 92.6678 41.7 92.7609 41.9133L92.6944 41.98C91.8299 41.36 90.9654 41.24 89.5489 41.24H89.0502L89.0235 44.4533ZM80.3786 40.8467H79.4875C79.0432 40.8626 78.5984 40.8426 78.1575 40.7867V40.8467C78.47 41 78.5299 41.0333 78.5299 41.4333V48.1C78.5299 48.5 78.47 48.5333 78.1575 48.6867V48.7467C78.5984 48.6908 79.0432 48.6707 79.4875 48.6867H80.3786C83.0386 48.6867 85.2929 47.6067 85.2929 44.74C85.2929 41.8733 83.0652 40.8467 80.3786 40.8467ZM84.2688 44.76C84.2688 46.76 83.1583 48.3067 80.1924 48.3067H79.7003V41.22H80.1924C83.1915 41.22 84.2688 42.76 84.2688 44.76ZM68.3687 41.4667V41.3333C68.3687 41.0267 68.2423 40.9667 67.9963 40.84V40.78C68.3241 40.8298 68.6557 40.8499 68.9871 40.84C69.3163 40.8506 69.6458 40.8305 69.9713 40.78V40.84C69.7253 40.9667 69.6056 41.0267 69.6056 41.3333V48.3333H70.0977C71.1985 48.4364 72.3029 48.1765 73.2431 47.5933L73.3096 47.6533C73.2165 47.8667 72.9705 48.36 72.8441 48.7333H69.3861C68.9419 48.7108 68.4965 48.7309 68.0561 48.7933V48.7C68.3021 48.58 68.4285 48.52 68.4285 48.2067V44.76C68.3687 43.1 68.3687 42 68.3687 41.4667ZM61.7918 44.4533C64.106 44.4533 64.3853 44.3333 64.505 43.84H64.5715C64.4835 44.3697 64.4835 44.9103 64.5715 45.44H64.505C64.3853 44.9467 64.106 44.8267 61.7918 44.8267V48.28H62.2839C63.3866 48.3796 64.492 48.1201 65.436 47.54L65.4959 47.6C65.4028 47.8133 65.1567 48.3067 65.0304 48.68H61.5723C61.1281 48.6575 60.6828 48.6776 60.2423 48.74C60.4884 48.62 60.6148 48.56 60.6148 48.2467V41.3333C60.6148 41.02 60.4884 40.96 60.2423 40.84V40.7733C60.6821 40.8425 61.1279 40.8648 61.5723 40.84H65.0304L65.4959 41.9133L65.436 41.98C64.5715 41.36 63.707 41.24 62.2839 41.24H61.7918C61.845 42 61.845 42.82 61.7918 44.4533ZM54.53 41.22C53.5181 41.1528 52.5114 41.4121 51.6572 41.96H51.5973C51.6904 41.7467 51.9365 41.2533 52.0562 40.88H58.2008L58.6663 41.96L58.6065 42.02C57.7457 41.4588 56.724 41.1986 55.7004 41.28V48.28C55.7004 48.5867 55.8268 48.6467 56.0728 48.7733V48.8333C55.7451 48.7824 55.4134 48.7623 55.082 48.7733C54.7527 48.7627 54.4233 48.7828 54.0978 48.8333V48.74C54.3438 48.62 54.4702 48.56 54.4702 48.2467V44.76L54.53 41.22ZM46.4769 48.7733C45.9401 48.794 45.4048 48.7058 44.9029 48.514C44.401 48.3223 43.9429 48.0309 43.5561 47.6574C43.1692 47.2839 42.8616 46.8359 42.6516 46.3403C42.4416 45.8448 42.3335 45.3118 42.3339 44.7733C42.3034 43.946 42.5202 43.1285 42.9565 42.4256C43.3929 41.7227 44.0287 41.1666 44.7826 40.8286C45.5364 40.4906 46.3738 40.3862 47.1872 40.5287C48.0007 40.6712 48.7531 41.0542 49.3479 41.6284C49.9427 42.2027 50.3528 42.9421 50.5254 43.7517C50.6981 44.5612 50.6254 45.4041 50.3169 46.1719C50.0083 46.9398 49.4779 47.5978 48.7937 48.0613C48.1094 48.5248 47.3026 48.7728 46.4769 48.7733ZM46.4769 41.1533C44.6814 41.1533 43.6041 42.4867 43.6041 44.7C43.6041 46.9133 44.6814 48.2467 46.4769 48.2467C48.2724 48.2467 49.343 46.9133 49.343 44.7C49.343 42.4867 48.299 41.1533 46.4769 41.1533ZM34.0613 44.8533V48.1867C34.0613 48.4933 34.181 48.5533 34.4337 48.68V48.74C33.7712 48.6591 33.1012 48.6591 32.4387 48.74C32.6914 48.62 32.8111 48.56 32.8111 48.2467V41.3333C32.8111 41.0267 32.6914 40.9667 32.4387 40.84V40.78C32.7664 40.8309 33.0981 40.851 33.4296 40.84C33.761 40.8499 34.0926 40.8298 34.4204 40.78V40.84C34.1677 40.9667 34.048 41.0267 34.048 41.3333V44.4467H38.7429V41.3333C38.7429 41.0267 38.6166 40.9667 38.3705 40.84V40.78C39.033 40.8616 39.703 40.8616 40.3655 40.78V40.84C40.1195 40.9667 39.9931 41.0267 39.9931 41.3333V48.2133C39.9931 48.5267 40.1195 48.5867 40.3655 48.7067V48.7733C40.0407 48.7162 39.7108 48.6939 39.3813 48.7067C39.0496 48.6953 38.7176 48.7177 38.3905 48.7733V48.7067C38.6365 48.5867 38.7629 48.5267 38.7629 48.2133V44.88L34.0613 44.8533ZM97.6087 68.3467C96.312 65.68 92.8872 58.2333 91.1848 54.3467H90.8789C88.9637 58.7533 85.9047 65.3533 84.3619 68.5267C84.2392 68.8078 84.0565 69.0585 83.8267 69.2612C83.5969 69.4639 83.3256 69.6137 83.0319 69.7V69.82C83.5485 69.7179 84.0753 69.6776 84.6013 69.7C85.1295 69.6812 85.6581 69.7214 86.1774 69.82V69.6667C85.4392 69.4533 85.253 69.1133 85.5589 68.3333C85.8648 67.5533 86.3968 66.3333 86.982 65H94.2372C94.9487 66.6667 95.5073 67.9867 95.78 68.5733C96.0526 69.16 95.8731 69.44 95.228 69.6533V69.7733C95.8619 69.679 96.5026 69.6388 97.1432 69.6533C97.7531 69.6272 98.3641 69.6674 98.9653 69.7733V69.6533C98.3694 69.398 97.887 68.9333 97.6087 68.3467ZM87.2015 64.3467C88.3187 61.8133 89.6154 58.7333 90.4799 56.8533C91.2513 58.52 92.6677 61.7267 93.8448 64.3467H87.2015ZM0 62.06V62.12C0 66.7867 3.7373 69.7933 8.02655 69.7933C9.02252 69.8006 10.013 69.6452 10.9592 69.3333C11.9771 69.0182 12.9082 68.4705 13.6791 67.7333C13.6529 67.1039 13.6953 66.4735 13.8054 65.8533H13.6791C12.6616 68.0067 10.5935 69.1867 8.02655 69.1867C4.63505 69.1867 1.85535 66.38 1.85535 62.0667C1.85535 57.7533 4.655 54.9067 8.02655 54.9067C9.19009 54.8505 10.3447 55.136 11.3487 55.7281C12.3528 56.3202 13.1627 57.1932 13.6791 58.24H13.8054C13.6942 57.6199 13.6518 56.9894 13.6791 56.36C12.9039 55.627 11.9744 55.078 10.9592 54.7533C10.0122 54.4449 9.02226 54.2896 8.02655 54.2933C3.7373 54.32 0 57.3333 0 62V62.06ZM56.013 54.32C51.7237 54.32 48.033 57.3133 48.033 62.06C48.033 66.68 51.737 69.7933 56.013 69.7933C60.2889 69.7933 64.0462 66.68 63.993 62.06C64.0129 57.3333 60.3089 54.32 56.013 54.32ZM56.013 69.24C52.535 69.24 49.875 66.7467 49.875 62.2733C49.875 57.8 52.535 54.94 56.0196 54.94C59.5042 54.94 62.1709 57.7733 62.1709 62.2733C62.1709 66.7733 59.5042 69.24 56.013 69.24ZM79.7335 69.6733H80.465V59.6867C80.465 55.2467 80.7111 54.6933 81.6354 54.4467V54.32C80.5937 54.489 79.5317 54.489 78.49 54.32V54.4467C79.4476 54.6933 79.6604 55.2133 79.6604 59.6533V66.7733L68.8009 54.4467C67.9742 54.5011 67.144 54.4586 66.3271 54.32V54.4467C66.8259 54.6933 67.0387 54.8133 67.0387 55.4V64.4333C67.0387 68.8733 66.7926 69.4267 65.8683 69.6733V69.7933C66.9106 69.6331 67.9713 69.6331 69.0137 69.7933V69.6733C68.0561 69.4267 67.8433 68.9 67.8433 64.46V56.08L79.7335 69.6733ZM105.396 54.4467H103.634C102.745 54.4856 101.855 54.4432 100.974 54.32V54.4467C101.592 54.78 101.685 54.8133 101.685 55.5867V68.5333C101.685 69.3067 101.592 69.3667 100.974 69.6733V69.7933C101.855 69.6759 102.745 69.6357 103.634 69.6733H105.396C110.583 69.6733 114.593 67.5733 114.593 62.06C114.593 56.5467 110.583 54.4467 105.396 54.4467ZM112.585 62.06C112.585 65.94 110.457 69.0267 104.711 69.0267H103.261V55.0933H104.711C110.49 55.0933 112.585 58.2067 112.585 62.06ZM48.3588 69.6733C47.9122 69.641 47.4794 69.504 47.0953 69.2733C46.7727 69.0846 46.4717 68.861 46.1976 68.6067C44.8368 67.3547 43.6512 65.9239 42.6731 64.3533C42.4372 64.0212 42.1771 63.707 41.895 63.4133C41.5825 63.1067 41.0904 62.7467 41.1236 62.7467C41.3219 62.7061 41.5174 62.6527 41.7088 62.5867C42.3469 62.3965 42.9155 62.0234 43.3447 61.5133C44.0701 60.6518 44.4557 59.5538 44.4286 58.4267C44.4501 57.8901 44.3594 57.3549 44.1625 56.8555C43.9655 56.3561 43.6666 55.9035 43.2848 55.5267C42.861 55.1387 42.3633 54.8406 41.8216 54.6504C41.2799 54.4602 40.7054 54.3819 40.1328 54.42H35.6374C35.1397 54.4398 34.6415 54.3972 34.1544 54.2933V54.42C34.6133 54.6333 34.866 54.7867 34.866 55.3733V68.7067C34.866 69.2933 34.6133 69.4467 34.1544 69.66V69.7867C34.6504 69.6819 35.1575 69.6394 35.664 69.66C36.1726 69.6395 36.6819 69.682 37.1802 69.7867V69.6933C36.7147 69.48 36.4686 69.3267 36.4686 68.74V62.7667H39.235C40.1328 62.8267 41.2699 64.8933 41.9549 65.88C42.846 67.1733 43.4046 67.7933 43.5908 68.04C44.0452 68.5831 44.6116 69.0211 45.251 69.3238C45.8904 69.6265 46.5877 69.7867 47.2948 69.7933H48.3788L48.3588 69.6733ZM39.235 62.0867C38.9624 62.12 36.4553 62.0867 36.4553 62.0867V55.12H39.7803C40.1907 55.0824 40.604 55.1439 40.9858 55.2993C41.3676 55.4547 41.7068 55.6996 41.9748 56.0133C42.4205 56.6485 42.6919 57.3898 42.7619 58.1632C42.8319 58.9366 42.6981 59.7148 42.3738 60.42C42.2027 60.7524 41.978 61.0543 41.7088 61.3133C40.9816 61.8167 40.1188 62.0864 39.235 62.0867ZM24.1196 69.7933C19.8237 69.7933 16.1396 66.68 16.1396 62.06C16.1396 57.3133 19.8436 54.32 24.1196 54.32C28.3955 54.32 32.0996 57.3133 32.0996 62.06C32.1461 66.6667 28.4088 69.7933 24.1196 69.7933ZM24.1196 54.94C20.6283 54.94 17.975 57.7733 17.975 62.2733C17.975 66.7733 20.635 69.24 24.1196 69.24C27.6042 69.24 30.2641 66.7733 30.2641 62.2733C30.2641 57.7733 27.6042 54.94 24.1196 54.94ZM125.02 54.3533C120.731 54.3533 117.04 57.34 117.04 62.0867C117.04 66.7133 120.744 69.8267 125.02 69.8267C129.296 69.8267 133.053 66.7133 133 62.0867C133 57.3333 129.296 54.3533 125.02 54.3533ZM125.02 69.24C121.535 69.24 118.875 66.7467 118.875 62.2733C118.875 57.8 121.535 54.94 125.02 54.94C128.505 54.94 131.165 57.7733 131.165 62.2733C131.165 66.7733 128.491 69.24 125.02 69.24Z" fill="var(--fill-0, #242829)"/>
</g>
<defs>
<clipPath id="clip0_4117_486">
<rect width="133" height="80" fill="white"/>
</clipPath>
</defs>
</svg>
